<?xml version="1.0" encoding="UTF-8"?>
<svg id="Layer_2" data-name="Layer 2" xmlns="http://www.w3.org/2000/svg" xmlns:xlink="http://www.w3.org/1999/xlink" viewBox="0 0 128.77 160.9">
  <defs>
    <style>
      .cls-1 {
        fill: url(#New_Gradient_Swatch_copy);
      }

      .cls-2 {
        fill: #edc9ff;
      }
    </style>
    <linearGradient id="New_Gradient_Swatch_copy" data-name="New Gradient Swatch copy" x1="64.39" y1="160.9" x2="64.39" y2="7.39" gradientUnits="userSpaceOnUse">
      <stop offset="0" stop-color="#f2b79f"/>
      <stop offset=".22" stop-color="#facacf"/>
      <stop offset=".35" stop-color="#fed4e7"/>
      <stop offset=".5" stop-color="#f6cef1"/>
      <stop offset=".72" stop-color="#efcafb"/>
      <stop offset="1" stop-color="#edc9ff"/>
    </linearGradient>
  </defs>
  <g id="Layer_1-2" data-name="Layer 1">
    <g>
      <path class="cls-2" d="M82.53,4.2c-.17,1.42.63,2.91,1.92,3.56.47.24,1.02.38,1.35.79.96,1.18-.72,3.08.04,4.39.5.87,1.79.9,2.68.45,1.42-.72,2.25-2.3,2.45-3.87s-.14-3.17-.54-4.71c-.31-1.18-.68-2.4-1.52-3.28-2.17-2.28-6.05-.11-6.38,2.67Z"/>
      <path class="cls-2" d="M111.58,15.46c.12.24.34.41.58.52s.51.15.78.18c.44.05.92.08,1.28-.17.46-.3.59-.98.31-1.45-.66-1.1-3.69-.6-2.95.92Z"/>
      <path class="cls-2" d="M101.77,10.91c.06.92,1,1.62,1.91,1.6,1.62-.04,3.51-2.23,1.92-3.54-1.36-1.12-3.95.18-3.84,1.94Z"/>
      <path class="cls-2" d="M109.25,4.21c.36.56,1.12.68,1.78.61,1.39-.15,3-1.06,3.37-2.51.25-.99-.2-1.85-1.16-2.18-.88-.3-1.96-.07-2.7.48-.9.66-1.98,2.53-1.29,3.6Z"/>
      <path class="cls-2" d="M57.22,21.57c.25.46.83.68,1.33.57.96-.22,1.76-1.94.63-2.45-1.06-.48-2.58.77-1.97,1.89Z"/>
      <path class="cls-2" d="M62.4,19.58c.46-.04.92-.13,1.31-.37s.68-.69.62-1.14c-.13-1.13-2.04-1.42-2.81-.8-.38.31-.49.87-.47,1.34.04.82.59,1.05,1.35.98Z"/>
      <path class="cls-2" d="M52.6,3.16c-1.1.25-2.18.75-2.93,1.58-.32.35-.58.8-.52,1.26.07.48.49.86.95,1s.97.08,1.44-.04c1.06-.27,2.03-.8,2.98-1.33.48-.27.98-.54,1.35-.96,2.04-2.26-2.21-1.75-3.27-1.51Z"/>
      <path class="cls-2" d="M60.3,1.28c-.47.26-.87.76-.79,1.3.08.56.65.92,1.18,1.1s1.13.28,1.57.64c.38.31.68.84,1.18.85.37,0,.68-.31.77-.67s.01-.73-.11-1.08c-.56-1.61-1.99-3.13-3.8-2.14Z"/>
      <path class="cls-2" d="M94.13,27.61c.47.02.98-.07,1.32-.39,2-1.84-1.8-5.62-3.9-4.76-1.21.49-1.03,2.14-.55,3.09.59,1.16,1.81,2,3.12,2.06Z"/>
      <path class="cls-1" d="M125.06,48.51c-3.15-4.96-7.66-8.85-12.8-11.73.58-.76.92-1.71.85-2.94-.06-1.08-.56-2.12-.56-3.2,0-2.07,1.75-4.27.61-5.99-.94-1.41-3.41-1.56-3.74-3.22-.18-.9.43-1.76.58-2.66.28-1.62-1.07-3.25-2.69-3.54-1.62-.28-3.31.62-4.23,1.98-.93,1.36-1.17,3.1-.98,4.73.17,1.4.64,2.75.78,4.16.14,1.4-.12,2.96-1.16,3.91-.87.8-1.73,1.29-2.32,1.86-4.87-1.13-9.62-1.55-14.39-1.55-.22-1.58-1.09-3.2-2.02-4.62-1.54-2.35-3.28-5.01-2.34-7.59.68-1.88,2.69-3.28,3.16-5.21.55-2.26-1.43-4.63-4.02-5.26-5.32-1.3-9.6,3.69-11.95,7.09-1.15,1.66-1.36,3.05-.63,4.91.86,2.19,4.08,4.06,3.78,6.51-.23,1.88-2.72,3.18-2.78,5.07h0c-1.46-.02-2.91-.14-4.35-.31.24-.52.45-1.04.55-1.6.19-1.05-.05-2.13-.35-3.16-.35-1.2-.84-2.43-1.83-3.2-.56-.44-2.46-1.14-2.92-.2-.46.94,1.75,1.51,2.28,1.99.79.72,1.25,1.91.81,2.88-.23.52-.68.91-1.11,1.29-.48.43-.95.89-1.31,1.42-1.28-.22-2.55-.46-3.83-.7,0-1.54-.62-3.05-1.42-4.45-.97-1.71-2.24-3.49-1.82-5.34.44-1.95,2.59-3.27,4.47-4.54,1.87-1.27,3.77-2.99,3.41-4.95-.33-1.8-2.7-3.07-4.95-2.95-2.24.12-4.23,1.38-5.36,2.95-1.42,1.96-1.81,4.49-3.96,5.95-1.68,1.14-4.17,1.4-5.58,2.77-.71.7-1.02,1.56-1.22,2.46-1.08,1.27-2,2.83-2.3,3.27-1,1.49-2.06,2.99-3.53,4.22-1.5,1.26-3.35,2.22-4.84,3.48-4.62,2.75-8.31,6.77-9.87,11.89-3.76,12.33,5.49,26.61-.38,38.08-3.96,7.76-13.67,11.39-17.32,19.3-2.48,5.38-1.61,11.83.96,17.17,2.57,5.34,6.66,9.77,10.75,14.06,10.28,10.77,21.54,21.52,35.75,25.95,22,6.86,41.26-6.42,43.01-7.57,13.74-9.06,27-26.82,24.76-42.89-.87-6.22-3.97-11.54-1.34-18.79,2.25-6.22,6.06-6.51,9.55-12.52,4.73-8.15,5.5-20.24.15-28.66ZM86.02,41.73c.74-1.06,2.29-1.09,3.57-.88,4.1.67,7.97,2.68,10.87,5.65.83.84,1.61,1.84,1.71,3.02.09,1.06-.69,2.44-1.86,2.46-1,.02-2.11-1.44-2.85-1.99-2.04-1.54-4.37-2.69-6.84-3.37-1.28-.35-2.64-.6-3.7-1.4s-1.67-2.39-.92-3.48ZM27.2,68.59c.38-1.22,1.04-3.7,2.91-4.32.21-.07,1.09-.36,1.83,0,2.13,1.02.23,6.07,1.41,12.12.25,1.28,1.41,6.58,5.48,10.91,6.03,6.43,8.26,7.86,8.26,7.86.44.28,1.79,1.13,2.13,2.61.24,1.06-.02,2.47-.91,3.11-.25.18-1.31.84-4.95-.92-3.71-1.8-6.06-4.16-6.57-4.68-2.2-2.25-5.34-5.5-7.71-10.98-1.3-3-3.89-9.23-1.88-15.72ZM59.78,137.8c-5.22,0-10.19-.76-14.9-2.27-4.71-1.52-8.67-3.62-11.87-6.31-4.88-4.12-7.32-8.29-7.32-12.5,0-2.69.9-4.92,2.71-6.69,1.81-1.77,4.1-2.65,6.88-2.65,1.52,0,2.9.34,4.17,1.01,1.26.67,2.78,1.94,4.54,3.79,2.61,2.78,5.18,4.73,7.7,5.87,2.52,1.14,5.47,1.71,8.84,1.71,5.56,0,9.7-1.03,12.44-3.09,2.73-2.06,4.1-4.61,4.1-7.64,0-2.27-1.18-4.12-3.53-5.56-2.36-1.43-6.1-3.11-11.24-5.05-5.47-2.1-9.95-4.1-13.45-6-3.49-1.89-6.52-4.48-9.09-7.76-2.57-3.28-3.85-7.36-3.85-12.25s1.43-9.72,4.29-14.01c2.86-4.29,6.99-7.7,12.37-10.23,5.39-2.53,11.74-3.79,19.06-3.79,4.88,0,9.55.76,14.01,2.27,4.46,1.52,8.25,3.62,11.36,6.31,4.54,3.87,6.82,7.87,6.82,11.99,0,2.7-.91,4.95-2.71,6.76-1.81,1.81-4.1,2.71-6.88,2.71-1.6,0-3.03-.36-4.29-1.07-1.26-.71-2.82-2.04-4.67-3.98-2.36-2.61-4.67-4.44-6.94-5.49-2.27-1.05-4.92-1.58-7.95-1.58-3.96,0-7.18.88-9.66,2.65-2.48,1.77-3.72,4.04-3.72,6.82,0,2.27,1.2,4.15,3.6,5.62,2.4,1.47,6.16,3.18,11.3,5.11,5.39,2.02,9.85,3.96,13.38,5.81,3.53,1.85,6.57,4.44,9.09,7.76,2.52,3.33,3.79,7.43,3.79,12.31,0,5.39-1.5,10.31-4.48,14.77-2.99,4.46-7.39,8.02-13.19,10.67-5.81,2.65-12.71,3.98-20.71,3.98ZM96.04,135.1c-1.93,2.11-6.01,3.88-6.62-.34-.42-2.89,1.7-4.21,3.53-5.81,5.05-4.41,7.34-12.06,7.15-18.6-.03-.9-.1-1.82.14-2.69.24-.87.85-1.7,1.73-1.9.89-.2,1.83.3,2.37,1.03s.78,1.65.94,2.54c1.66,9.31-2.86,18.79-9.24,25.77ZM109.72,72.16c-1.16,1.13-3.37,1.33-4.26-.03-.51-.79-.43-1.84-.11-2.72.32-.89.85-1.68,1.19-2.56.98-2.47.44-5.36-.94-7.63-.66-1.08-1.5-2.09-1.86-3.3-.35-1.22,0-2.78,1.16-3.28,1.08-.46,2.31.17,3.22.92,2.66,2.2,4.16,5.62,4.23,9.05.05,2.71-.63,7.6-2.65,9.56Z"/>
    </g>
  </g>
</svg>