<?xml version="1.0" encoding="UTF-8"?>
<svg id="Layer_2" data-name="Layer 2" xmlns="http://www.w3.org/2000/svg" xmlns:xlink="http://www.w3.org/1999/xlink" viewBox="0 0 759.43 1484.59">
  <defs>
    <style>
      .cls-1 {
        stroke: url(#New_Gradient_Swatch_copy-25);
      }

      .cls-1, .cls-2, .cls-3, .cls-4, .cls-5, .cls-6, .cls-7, .cls-8, .cls-9, .cls-10, .cls-11, .cls-12, .cls-13, .cls-14, .cls-15, .cls-16, .cls-17, .cls-18, .cls-19, .cls-20, .cls-21, .cls-22, .cls-23, .cls-24, .cls-25, .cls-26, .cls-27, .cls-28, .cls-29, .cls-30, .cls-31, .cls-32, .cls-33, .cls-34, .cls-35, .cls-36, .cls-37, .cls-38, .cls-39, .cls-40 {
        fill: none;
        stroke-miterlimit: 10;
        stroke-width: 5px;
      }

      .cls-2 {
        stroke: url(#New_Gradient_Swatch_copy-27);
      }

      .cls-3 {
        stroke: url(#New_Gradient_Swatch_copy-32);
      }

      .cls-4 {
        stroke: url(#New_Gradient_Swatch_copy-2);
      }

      .cls-5 {
        stroke: url(#New_Gradient_Swatch_copy-18);
      }

      .cls-6 {
        stroke: url(#New_Gradient_Swatch_copy-14);
      }

      .cls-7 {
        stroke: url(#New_Gradient_Swatch_copy-5);
      }

      .cls-8 {
        stroke: url(#New_Gradient_Swatch_copy-24);
      }

      .cls-9 {
        stroke: url(#New_Gradient_Swatch_copy-3);
      }

      .cls-10 {
        stroke: url(#New_Gradient_Swatch_copy-28);
      }

      .cls-11 {
        stroke: url(#New_Gradient_Swatch_copy-30);
      }

      .cls-12 {
        stroke: url(#New_Gradient_Swatch_copy-12);
      }

      .cls-13 {
        stroke: url(#New_Gradient_Swatch_copy-31);
      }

      .cls-14 {
        stroke: url(#New_Gradient_Swatch_copy-15);
      }

      .cls-15 {
        stroke: url(#New_Gradient_Swatch_copy-39);
      }

      .cls-16 {
        stroke: url(#New_Gradient_Swatch_copy-22);
      }

      .cls-17 {
        stroke: url(#New_Gradient_Swatch_copy-37);
      }

      .cls-18 {
        stroke: url(#New_Gradient_Swatch_copy-19);
      }

      .cls-19 {
        stroke: url(#New_Gradient_Swatch_copy-13);
      }

      .cls-20 {
        stroke: url(#New_Gradient_Swatch_copy-9);
      }

      .cls-21 {
        stroke: url(#New_Gradient_Swatch_copy);
      }

      .cls-22 {
        stroke: url(#New_Gradient_Swatch_copy-20);
      }

      .cls-23 {
        stroke: url(#New_Gradient_Swatch_copy-17);
      }

      .cls-24 {
        stroke: url(#New_Gradient_Swatch_copy-26);
      }

      .cls-25 {
        stroke: url(#New_Gradient_Swatch_copy-38);
      }

      .cls-26 {
        stroke: url(#New_Gradient_Swatch_copy-10);
      }

      .cls-27 {
        stroke: url(#New_Gradient_Swatch_copy-21);
      }

      .cls-28 {
        stroke: url(#New_Gradient_Swatch_copy-16);
      }

      .cls-29 {
        stroke: url(#New_Gradient_Swatch_copy-34);
      }

      .cls-30 {
        stroke: url(#New_Gradient_Swatch_copy-35);
      }

      .cls-31 {
        stroke: url(#New_Gradient_Swatch_copy-33);
      }

      .cls-32 {
        stroke: url(#New_Gradient_Swatch_copy-8);
      }

      .cls-33 {
        stroke: url(#New_Gradient_Swatch_copy-4);
      }

      .cls-34 {
        stroke: url(#New_Gradient_Swatch_copy-23);
      }

      .cls-35 {
        stroke: url(#New_Gradient_Swatch_copy-40);
      }

      .cls-36 {
        stroke: url(#New_Gradient_Swatch_copy-7);
      }

      .cls-37 {
        stroke: url(#New_Gradient_Swatch_copy-6);
      }

      .cls-38 {
        stroke: url(#New_Gradient_Swatch_copy-36);
      }

      .cls-39 {
        stroke: url(#New_Gradient_Swatch_copy-11);
      }

      .cls-40 {
        stroke: url(#New_Gradient_Swatch_copy-29);
      }
    </style>
    <linearGradient id="New_Gradient_Swatch_copy" data-name="New Gradient Swatch copy" x1="422.14" y1="634.67" x2="0" y2="634.67" gradientUnits="userSpaceOnUse">
      <stop offset="0" stop-color="#f2b79f"/>
      <stop offset=".22" stop-color="#facacf"/>
      <stop offset=".35" stop-color="#fed4e7"/>
      <stop offset=".5" stop-color="#f6cef1"/>
      <stop offset=".72" stop-color="#efcafb"/>
      <stop offset="1" stop-color="#edc9ff"/>
    </linearGradient>
    <linearGradient id="New_Gradient_Swatch_copy-2" data-name="New Gradient Swatch copy" x1="430.79" y1="640.19" x2="8.65" y2="640.19" xlink:href="#New_Gradient_Swatch_copy"/>
    <linearGradient id="New_Gradient_Swatch_copy-3" data-name="New Gradient Swatch copy" x1="439.43" y1="645.71" x2="17.3" y2="645.71" xlink:href="#New_Gradient_Swatch_copy"/>
    <linearGradient id="New_Gradient_Swatch_copy-4" data-name="New Gradient Swatch copy" x1="448.08" y1="651.23" x2="25.95" y2="651.23" xlink:href="#New_Gradient_Swatch_copy"/>
    <linearGradient id="New_Gradient_Swatch_copy-5" data-name="New Gradient Swatch copy" x1="456.73" y1="656.75" x2="34.59" y2="656.75" xlink:href="#New_Gradient_Swatch_copy"/>
    <linearGradient id="New_Gradient_Swatch_copy-6" data-name="New Gradient Swatch copy" x1="465.38" y1="662.27" x2="43.24" y2="662.27" xlink:href="#New_Gradient_Swatch_copy"/>
    <linearGradient id="New_Gradient_Swatch_copy-7" data-name="New Gradient Swatch copy" x1="474.03" y1="667.79" x2="51.89" y2="667.79" xlink:href="#New_Gradient_Swatch_copy"/>
    <linearGradient id="New_Gradient_Swatch_copy-8" data-name="New Gradient Swatch copy" x1="482.68" y1="673.31" x2="60.54" y2="673.31" xlink:href="#New_Gradient_Swatch_copy"/>
    <linearGradient id="New_Gradient_Swatch_copy-9" data-name="New Gradient Swatch copy" x1="491.33" y1="678.82" x2="69.19" y2="678.82" xlink:href="#New_Gradient_Swatch_copy"/>
    <linearGradient id="New_Gradient_Swatch_copy-10" data-name="New Gradient Swatch copy" x1="499.97" y1="684.34" x2="77.84" y2="684.34" xlink:href="#New_Gradient_Swatch_copy"/>
    <linearGradient id="New_Gradient_Swatch_copy-11" data-name="New Gradient Swatch copy" x1="508.62" y1="689.86" x2="86.49" y2="689.86" xlink:href="#New_Gradient_Swatch_copy"/>
    <linearGradient id="New_Gradient_Swatch_copy-12" data-name="New Gradient Swatch copy" x1="517.27" y1="695.38" x2="95.13" y2="695.38" xlink:href="#New_Gradient_Swatch_copy"/>
    <linearGradient id="New_Gradient_Swatch_copy-13" data-name="New Gradient Swatch copy" x1="525.92" y1="700.9" x2="103.78" y2="700.9" xlink:href="#New_Gradient_Swatch_copy"/>
    <linearGradient id="New_Gradient_Swatch_copy-14" data-name="New Gradient Swatch copy" x1="534.57" y1="706.42" x2="112.43" y2="706.42" xlink:href="#New_Gradient_Swatch_copy"/>
    <linearGradient id="New_Gradient_Swatch_copy-15" data-name="New Gradient Swatch copy" x1="543.22" y1="711.94" x2="121.08" y2="711.94" xlink:href="#New_Gradient_Swatch_copy"/>
    <linearGradient id="New_Gradient_Swatch_copy-16" data-name="New Gradient Swatch copy" x1="551.87" y1="717.46" x2="129.73" y2="717.46" xlink:href="#New_Gradient_Swatch_copy"/>
    <linearGradient id="New_Gradient_Swatch_copy-17" data-name="New Gradient Swatch copy" x1="560.51" y1="722.98" x2="138.38" y2="722.98" xlink:href="#New_Gradient_Swatch_copy"/>
    <linearGradient id="New_Gradient_Swatch_copy-18" data-name="New Gradient Swatch copy" x1="569.16" y1="728.5" x2="147.03" y2="728.5" xlink:href="#New_Gradient_Swatch_copy"/>
    <linearGradient id="New_Gradient_Swatch_copy-19" data-name="New Gradient Swatch copy" x1="577.81" y1="734.01" x2="155.68" y2="734.01" xlink:href="#New_Gradient_Swatch_copy"/>
    <linearGradient id="New_Gradient_Swatch_copy-20" data-name="New Gradient Swatch copy" x1="586.46" y1="739.53" x2="164.32" y2="739.53" xlink:href="#New_Gradient_Swatch_copy"/>
    <linearGradient id="New_Gradient_Swatch_copy-21" data-name="New Gradient Swatch copy" x1="595.11" y1="745.05" x2="172.97" y2="745.05" xlink:href="#New_Gradient_Swatch_copy"/>
    <linearGradient id="New_Gradient_Swatch_copy-22" data-name="New Gradient Swatch copy" x1="603.76" y1="750.57" x2="181.62" y2="750.57" xlink:href="#New_Gradient_Swatch_copy"/>
    <linearGradient id="New_Gradient_Swatch_copy-23" data-name="New Gradient Swatch copy" x1="612.41" y1="756.09" x2="190.27" y2="756.09" xlink:href="#New_Gradient_Swatch_copy"/>
    <linearGradient id="New_Gradient_Swatch_copy-24" data-name="New Gradient Swatch copy" x1="621.06" y1="761.61" x2="198.92" y2="761.61" xlink:href="#New_Gradient_Swatch_copy"/>
    <linearGradient id="New_Gradient_Swatch_copy-25" data-name="New Gradient Swatch copy" x1="629.7" y1="767.13" x2="207.57" y2="767.13" xlink:href="#New_Gradient_Swatch_copy"/>
    <linearGradient id="New_Gradient_Swatch_copy-26" data-name="New Gradient Swatch copy" x1="638.35" y1="772.65" x2="216.22" y2="772.65" xlink:href="#New_Gradient_Swatch_copy"/>
    <linearGradient id="New_Gradient_Swatch_copy-27" data-name="New Gradient Swatch copy" x1="647" y1="778.17" x2="224.86" y2="778.17" xlink:href="#New_Gradient_Swatch_copy"/>
    <linearGradient id="New_Gradient_Swatch_copy-28" data-name="New Gradient Swatch copy" x1="655.65" y1="783.69" x2="233.51" y2="783.69" xlink:href="#New_Gradient_Swatch_copy"/>
    <linearGradient id="New_Gradient_Swatch_copy-29" data-name="New Gradient Swatch copy" x1="664.3" y1="789.2" x2="242.16" y2="789.2" xlink:href="#New_Gradient_Swatch_copy"/>
    <linearGradient id="New_Gradient_Swatch_copy-30" data-name="New Gradient Swatch copy" x1="672.95" y1="794.72" x2="250.81" y2="794.72" xlink:href="#New_Gradient_Swatch_copy"/>
    <linearGradient id="New_Gradient_Swatch_copy-31" data-name="New Gradient Swatch copy" x1="681.6" y1="800.24" x2="259.46" y2="800.24" xlink:href="#New_Gradient_Swatch_copy"/>
    <linearGradient id="New_Gradient_Swatch_copy-32" data-name="New Gradient Swatch copy" x1="690.24" y1="805.76" x2="268.11" y2="805.76" xlink:href="#New_Gradient_Swatch_copy"/>
    <linearGradient id="New_Gradient_Swatch_copy-33" data-name="New Gradient Swatch copy" x1="698.89" y1="811.28" x2="276.76" y2="811.28" xlink:href="#New_Gradient_Swatch_copy"/>
    <linearGradient id="New_Gradient_Swatch_copy-34" data-name="New Gradient Swatch copy" x1="707.54" y1="816.8" x2="285.4" y2="816.8" xlink:href="#New_Gradient_Swatch_copy"/>
    <linearGradient id="New_Gradient_Swatch_copy-35" data-name="New Gradient Swatch copy" x1="716.19" y1="822.32" x2="294.05" y2="822.32" xlink:href="#New_Gradient_Swatch_copy"/>
    <linearGradient id="New_Gradient_Swatch_copy-36" data-name="New Gradient Swatch copy" x1="724.84" y1="827.84" x2="302.7" y2="827.84" xlink:href="#New_Gradient_Swatch_copy"/>
    <linearGradient id="New_Gradient_Swatch_copy-37" data-name="New Gradient Swatch copy" x1="733.49" y1="833.36" x2="311.35" y2="833.36" xlink:href="#New_Gradient_Swatch_copy"/>
    <linearGradient id="New_Gradient_Swatch_copy-38" data-name="New Gradient Swatch copy" x1="742.14" y1="838.88" x2="320" y2="838.88" xlink:href="#New_Gradient_Swatch_copy"/>
    <linearGradient id="New_Gradient_Swatch_copy-39" data-name="New Gradient Swatch copy" x1="750.78" y1="844.39" x2="328.65" y2="844.39" xlink:href="#New_Gradient_Swatch_copy"/>
    <linearGradient id="New_Gradient_Swatch_copy-40" data-name="New Gradient Swatch copy" x1="759.43" y1="849.91" x2="337.3" y2="849.91" xlink:href="#New_Gradient_Swatch_copy"/>
  </defs>
  <g id="Layer_1-2" data-name="Layer 1">
    <g>
      <path class="cls-21" d="M115.57,9.12C87.43-3.36,52.21,2.16,29.24,22.66,6.26,43.16-3.22,77.52,5.98,106.9c12.87,41.1,55.9,65.02,97.52,76.1,41.62,11.08,85.91,13.75,124.79,32.28,66.74,31.82,105.72,120.71,69.54,185.19-52.31,93.21-205.58,79.65-265.03,168.48-36.81,55-16.89,139.8,41.06,171.76,77.56,42.77,179.7-9.74,260.96,25.48,68.38,29.64,98.61,117.31,78.9,189.18-19.71,71.87-78.92,127.42-145.15,161.59-33.8,17.44-70.28,30.55-100.3,53.89-30.03,23.34-53.21,60.62-46.41,98.03"/>
      <path class="cls-4" d="M124.22,14.64c-28.15-12.48-63.36-6.96-86.34,13.54C14.91,48.68,5.43,83.04,14.63,112.42c12.87,41.1,55.9,65.02,97.52,76.1,41.62,11.08,85.91,13.75,124.79,32.28,66.74,31.82,105.72,120.71,69.54,185.19-52.31,93.21-205.58,79.65-265.03,168.48-36.81,55-16.89,139.8,41.06,171.76,77.56,42.77,179.7-9.74,260.96,25.48,68.38,29.64,98.61,117.31,78.9,189.18-19.71,71.87-78.92,127.42-145.15,161.59-33.8,17.44-70.28,30.55-100.3,53.89s-53.21,60.62-46.41,98.03"/>
      <path class="cls-9" d="M132.87,20.16c-28.15-12.48-63.36-6.96-86.34,13.54-22.97,20.5-32.46,54.86-23.26,84.24,12.87,41.1,55.9,65.02,97.52,76.1,41.62,11.08,85.91,13.75,124.79,32.28,66.74,31.82,105.72,120.71,69.54,185.19-52.31,93.21-205.58,79.65-265.03,168.48-36.81,55-16.89,139.8,41.06,171.76,77.56,42.77,179.7-9.74,260.96,25.48,68.38,29.64,98.61,117.31,78.9,189.18-19.71,71.87-78.92,127.42-145.15,161.59-33.8,17.44-70.28,30.55-100.3,53.89-30.03,23.34-53.21,60.62-46.41,98.03"/>
      <path class="cls-33" d="M141.52,25.68c-28.15-12.48-63.36-6.96-86.34,13.54-22.97,20.5-32.46,54.86-23.26,84.24,12.87,41.1,55.9,65.02,97.52,76.1,41.62,11.08,85.91,13.75,124.79,32.28,66.74,31.82,105.72,120.71,69.54,185.19-52.31,93.21-205.58,79.65-265.03,168.48-36.81,55-16.89,139.8,41.06,171.76,77.56,42.77,179.7-9.74,260.96,25.48,68.38,29.64,98.61,117.31,78.9,189.18-19.71,71.87-78.92,127.42-145.15,161.59-33.8,17.44-70.28,30.55-100.3,53.89-30.03,23.34-53.21,60.62-46.41,98.03"/>
      <path class="cls-7" d="M150.17,31.2c-28.15-12.48-63.36-6.96-86.34,13.54s-32.46,54.86-23.26,84.24c12.87,41.1,55.9,65.02,97.52,76.1,41.62,11.08,85.91,13.75,124.79,32.28,66.74,31.82,105.72,120.71,69.54,185.19-52.31,93.21-205.58,79.65-265.03,168.48-36.81,55-16.89,139.8,41.06,171.76,77.56,42.77,179.7-9.74,260.96,25.48,68.38,29.64,98.61,117.31,78.9,189.18-19.71,71.87-78.92,127.42-145.15,161.59-33.8,17.44-70.28,30.55-100.3,53.89-30.03,23.34-53.21,60.62-46.41,98.03"/>
      <path class="cls-37" d="M158.82,36.71c-28.15-12.48-63.36-6.96-86.34,13.54-22.97,20.5-32.46,54.86-23.26,84.24,12.87,41.1,55.9,65.02,97.52,76.1s85.91,13.75,124.79,32.28c66.74,31.82,105.72,120.71,69.54,185.19-52.31,93.21-205.58,79.65-265.03,168.48-36.81,55-16.89,139.8,41.06,171.76,77.56,42.77,179.7-9.74,260.96,25.48,68.38,29.64,98.61,117.31,78.9,189.18-19.71,71.87-78.92,127.42-145.15,161.59-33.8,17.44-70.28,30.55-100.3,53.89-30.03,23.34-53.21,60.62-46.41,98.03"/>
      <path class="cls-36" d="M167.47,42.23c-28.15-12.48-63.36-6.96-86.34,13.54-22.97,20.5-32.46,54.86-23.26,84.24,12.87,41.1,55.9,65.02,97.52,76.1,41.62,11.08,85.91,13.75,124.79,32.28,66.74,31.82,105.72,120.71,69.54,185.19-52.31,93.21-205.58,79.65-265.03,168.48-36.81,55-16.89,139.8,41.06,171.76,77.56,42.77,179.7-9.74,260.96,25.48,68.38,29.64,98.61,117.31,78.9,189.18-19.71,71.87-78.92,127.42-145.15,161.59-33.8,17.44-70.28,30.55-100.3,53.89-30.03,23.34-53.21,60.62-46.41,98.03"/>
      <path class="cls-32" d="M176.11,47.75c-28.15-12.48-63.36-6.96-86.34,13.54-22.97,20.5-32.46,54.86-23.26,84.24,12.87,41.1,55.9,65.02,97.52,76.1,41.62,11.08,85.91,13.75,124.79,32.28,66.74,31.82,105.72,120.71,69.54,185.19-52.31,93.21-205.58,79.65-265.03,168.48-36.81,55-16.89,139.8,41.06,171.76,77.56,42.77,179.7-9.74,260.96,25.48,68.38,29.64,98.61,117.31,78.9,189.18-19.71,71.87-78.92,127.42-145.15,161.59-33.8,17.44-70.28,30.55-100.3,53.89-30.03,23.34-53.21,60.62-46.41,98.03"/>
      <path class="cls-20" d="M184.76,53.27c-28.15-12.48-63.36-6.96-86.34,13.54-22.97,20.5-32.46,54.86-23.26,84.24,12.87,41.1,55.9,65.02,97.52,76.1,41.62,11.08,85.91,13.75,124.79,32.28,66.74,31.82,105.72,120.71,69.54,185.19-52.31,93.21-205.58,79.65-265.03,168.48-36.81,55-16.89,139.8,41.06,171.76,77.56,42.77,179.7-9.74,260.96,25.48,68.38,29.64,98.61,117.31,78.9,189.18-19.71,71.87-78.92,127.42-145.15,161.59-33.8,17.44-70.28,30.55-100.3,53.89-30.03,23.34-53.21,60.62-46.41,98.03"/>
      <path class="cls-26" d="M193.41,58.79c-28.15-12.48-63.36-6.96-86.34,13.54-22.97,20.5-32.46,54.86-23.26,84.24,12.87,41.1,55.9,65.02,97.52,76.1s85.91,13.75,124.79,32.28c66.74,31.82,105.72,120.71,69.54,185.19-52.31,93.21-205.58,79.65-265.03,168.48-36.81,55-16.89,139.8,41.06,171.76,77.56,42.77,179.7-9.74,260.96,25.48,68.38,29.64,98.61,117.31,78.9,189.18-19.71,71.87-78.92,127.42-145.15,161.59-33.8,17.44-70.28,30.55-100.3,53.89-30.03,23.34-53.21,60.62-46.41,98.03"/>
      <path class="cls-39" d="M202.06,64.31c-28.15-12.48-63.36-6.96-86.34,13.54-22.97,20.5-32.46,54.86-23.26,84.24,12.87,41.1,55.9,65.02,97.52,76.1s85.91,13.75,124.79,32.28c66.74,31.82,105.72,120.71,69.54,185.19-52.31,93.21-205.58,79.65-265.03,168.48-36.81,55-16.89,139.8,41.06,171.76,77.56,42.77,179.7-9.74,260.96,25.48,68.38,29.64,98.61,117.31,78.9,189.18-19.71,71.87-78.92,127.42-145.15,161.59-33.8,17.44-70.28,30.55-100.3,53.89-30.03,23.34-53.21,60.62-46.41,98.03"/>
      <path class="cls-12" d="M210.71,69.83c-28.15-12.48-63.36-6.96-86.34,13.54-22.97,20.5-32.46,54.86-23.26,84.24,12.87,41.1,55.9,65.02,97.52,76.1,41.62,11.08,85.91,13.75,124.79,32.28,66.74,31.82,105.72,120.71,69.54,185.19-52.31,93.21-205.58,79.65-265.03,168.48-36.81,55-16.89,139.8,41.06,171.76,77.56,42.77,179.7-9.74,260.96,25.48,68.38,29.64,98.61,117.31,78.9,189.18-19.71,71.87-78.92,127.42-145.15,161.59-33.8,17.44-70.28,30.55-100.3,53.89-30.03,23.34-53.21,60.62-46.41,98.03"/>
      <path class="cls-19" d="M219.36,75.35c-28.15-12.48-63.36-6.96-86.34,13.54-22.97,20.5-32.46,54.86-23.26,84.24,12.87,41.1,55.9,65.02,97.52,76.1,41.62,11.08,85.91,13.75,124.79,32.28,66.74,31.82,105.72,120.71,69.54,185.19-52.31,93.21-205.58,79.65-265.03,168.48-36.81,55-16.89,139.8,41.06,171.76,77.56,42.77,179.7-9.74,260.96,25.48,68.38,29.64,98.61,117.31,78.9,189.18-19.71,71.87-78.92,127.42-145.15,161.59-33.8,17.44-70.28,30.55-100.3,53.89-30.03,23.34-53.21,60.62-46.41,98.03"/>
      <path class="cls-6" d="M228.01,80.87c-28.15-12.48-63.36-6.96-86.34,13.54-22.97,20.5-32.46,54.86-23.26,84.24,12.87,41.1,55.9,65.02,97.52,76.1,41.62,11.08,85.91,13.75,124.79,32.28,66.74,31.82,105.72,120.71,69.54,185.19-52.31,93.21-205.58,79.65-265.03,168.48-36.81,55-16.89,139.8,41.06,171.76,77.56,42.77,179.7-9.74,260.96,25.48,68.38,29.64,98.61,117.31,78.9,189.18-19.71,71.87-78.92,127.42-145.15,161.59-33.8,17.44-70.28,30.55-100.3,53.89-30.03,23.34-53.21,60.62-46.41,98.03"/>
      <path class="cls-14" d="M236.65,86.39c-28.15-12.48-63.36-6.96-86.34,13.54-22.97,20.5-32.46,54.86-23.26,84.24,12.87,41.1,55.9,65.02,97.52,76.1,41.62,11.08,85.91,13.75,124.79,32.28,66.74,31.82,105.72,120.71,69.54,185.19-52.31,93.21-205.58,79.65-265.03,168.48-36.81,55-16.89,139.8,41.06,171.76,77.56,42.77,179.7-9.74,260.96,25.48,68.38,29.64,98.61,117.31,78.9,189.18-19.71,71.87-78.92,127.42-145.15,161.59-33.8,17.44-70.28,30.55-100.3,53.89-30.03,23.34-53.21,60.62-46.41,98.03"/>
      <path class="cls-28" d="M245.3,91.9c-28.15-12.48-63.36-6.96-86.34,13.54s-32.46,54.86-23.26,84.24c12.87,41.1,55.9,65.02,97.52,76.1,41.62,11.08,85.91,13.75,124.79,32.28,66.74,31.82,105.72,120.71,69.54,185.19-52.31,93.21-205.58,79.65-265.03,168.48-36.81,55-16.89,139.8,41.06,171.76,77.56,42.77,179.7-9.74,260.96,25.48,68.38,29.64,98.61,117.31,78.9,189.18-19.71,71.87-78.92,127.42-145.15,161.59-33.8,17.44-70.28,30.55-100.3,53.89-30.03,23.34-53.21,60.62-46.41,98.03"/>
      <path class="cls-23" d="M253.95,97.42c-28.15-12.48-63.36-6.96-86.34,13.54-22.97,20.5-32.46,54.86-23.26,84.24,12.87,41.1,55.9,65.02,97.52,76.1,41.62,11.08,85.91,13.75,124.79,32.28,66.74,31.82,105.72,120.71,69.54,185.19-52.31,93.21-205.58,79.65-265.03,168.48-36.81,55-16.89,139.8,41.06,171.76,77.56,42.77,179.7-9.74,260.96,25.48,68.38,29.64,98.61,117.31,78.9,189.18s-78.92,127.42-145.15,161.59c-33.8,17.44-70.28,30.55-100.3,53.89s-53.21,60.62-46.41,98.03"/>
      <path class="cls-5" d="M262.6,102.94c-28.15-12.48-63.36-6.96-86.34,13.54-22.97,20.5-32.46,54.86-23.26,84.24,12.87,41.1,55.9,65.02,97.52,76.1,41.62,11.08,85.91,13.75,124.79,32.28,66.74,31.82,105.72,120.71,69.54,185.19-52.31,93.21-205.58,79.65-265.03,168.48-36.81,55-16.89,139.8,41.06,171.76,77.56,42.77,179.7-9.74,260.96,25.48,68.38,29.64,98.61,117.31,78.9,189.18-19.71,71.87-78.92,127.42-145.15,161.59-33.8,17.44-70.28,30.55-100.3,53.89-30.03,23.34-53.21,60.62-46.41,98.03"/>
      <path class="cls-18" d="M271.25,108.46c-28.15-12.48-63.36-6.96-86.34,13.54-22.97,20.5-32.46,54.86-23.26,84.24,12.87,41.1,55.9,65.02,97.52,76.1,41.62,11.08,85.91,13.75,124.79,32.28,66.74,31.82,105.72,120.71,69.54,185.19-52.31,93.21-205.58,79.65-265.03,168.48-36.81,55-16.89,139.8,41.06,171.76,77.56,42.77,179.7-9.74,260.96,25.48,68.38,29.64,98.61,117.31,78.9,189.18-19.71,71.87-78.92,127.42-145.15,161.59-33.8,17.44-70.28,30.55-100.3,53.89-30.03,23.34-53.21,60.62-46.41,98.03"/>
      <path class="cls-22" d="M279.9,113.98c-28.15-12.48-63.36-6.96-86.34,13.54-22.97,20.5-32.46,54.86-23.26,84.24,12.87,41.1,55.9,65.02,97.52,76.1,41.62,11.08,85.91,13.75,124.79,32.28,66.74,31.82,105.72,120.71,69.54,185.19-52.31,93.21-205.58,79.65-265.03,168.48-36.81,55-16.89,139.8,41.06,171.76,77.56,42.77,179.7-9.74,260.96,25.48,68.38,29.64,98.61,117.31,78.9,189.18s-78.92,127.42-145.15,161.59c-33.8,17.44-70.28,30.55-100.3,53.89-30.03,23.34-53.21,60.62-46.41,98.03"/>
      <path class="cls-27" d="M288.55,119.5c-28.15-12.48-63.36-6.96-86.34,13.54-22.97,20.5-32.46,54.86-23.26,84.24,12.87,41.1,55.9,65.02,97.52,76.1s85.91,13.75,124.79,32.28c66.74,31.82,105.72,120.71,69.54,185.19-52.31,93.21-205.58,79.65-265.03,168.48-36.81,55-16.89,139.8,41.06,171.76,77.56,42.77,179.7-9.74,260.96,25.48,68.38,29.64,98.61,117.31,78.9,189.18-19.71,71.87-78.92,127.42-145.15,161.59-33.8,17.44-70.28,30.55-100.3,53.89-30.03,23.34-53.21,60.62-46.41,98.03"/>
      <path class="cls-16" d="M297.2,125.02c-28.15-12.48-63.36-6.96-86.34,13.54-22.97,20.5-32.46,54.86-23.26,84.24,12.87,41.1,55.9,65.02,97.52,76.1,41.62,11.08,85.91,13.75,124.79,32.28,66.74,31.82,105.72,120.71,69.54,185.19-52.31,93.21-205.58,79.65-265.03,168.48-36.81,55-16.89,139.8,41.06,171.76,77.56,42.77,179.7-9.74,260.96,25.48,68.38,29.64,98.61,117.31,78.9,189.18-19.71,71.87-78.92,127.42-145.15,161.59-33.8,17.44-70.28,30.55-100.3,53.89-30.03,23.34-53.21,60.62-46.41,98.03"/>
      <path class="cls-34" d="M305.84,130.54c-28.15-12.48-63.36-6.96-86.34,13.54-22.97,20.5-32.46,54.86-23.26,84.24,12.87,41.1,55.9,65.02,97.52,76.1,41.62,11.08,85.91,13.75,124.79,32.28,66.74,31.82,105.72,120.71,69.54,185.19-52.31,93.21-205.58,79.65-265.03,168.48-36.81,55-16.89,139.8,41.06,171.76,77.56,42.77,179.7-9.74,260.96,25.48,68.38,29.64,98.61,117.31,78.9,189.18s-78.92,127.42-145.15,161.59c-33.8,17.44-70.28,30.55-100.3,53.89-30.03,23.34-53.21,60.62-46.41,98.03"/>
      <path class="cls-8" d="M314.49,136.06c-28.15-12.48-63.36-6.96-86.34,13.54s-32.46,54.86-23.26,84.24c12.87,41.1,55.9,65.02,97.52,76.1s85.91,13.75,124.79,32.28c66.74,31.82,105.72,120.71,69.54,185.19-52.31,93.21-205.58,79.65-265.03,168.48-36.81,55-16.89,139.8,41.06,171.76,77.56,42.77,179.7-9.74,260.96,25.48,68.38,29.64,98.61,117.31,78.9,189.18-19.71,71.87-78.92,127.42-145.15,161.59-33.8,17.44-70.28,30.55-100.3,53.89-30.03,23.34-53.21,60.62-46.41,98.03"/>
      <path class="cls-1" d="M323.14,141.58c-28.15-12.48-63.36-6.96-86.34,13.54-22.97,20.5-32.46,54.86-23.26,84.24,12.87,41.1,55.9,65.02,97.52,76.1,41.62,11.08,85.91,13.75,124.79,32.28,66.74,31.82,105.72,120.71,69.54,185.19-52.31,93.21-205.58,79.65-265.03,168.48-36.81,55-16.89,139.8,41.06,171.76,77.56,42.77,179.7-9.74,260.96,25.48,68.38,29.64,98.61,117.31,78.9,189.18-19.71,71.87-78.92,127.42-145.15,161.59-33.8,17.44-70.28,30.55-100.3,53.89-30.03,23.34-53.21,60.62-46.41,98.03"/>
      <path class="cls-24" d="M331.79,147.09c-28.15-12.48-63.36-6.96-86.34,13.54-22.97,20.5-32.46,54.86-23.26,84.24,12.87,41.1,55.9,65.02,97.52,76.1,41.62,11.08,85.91,13.75,124.79,32.28,66.74,31.82,105.72,120.71,69.54,185.19-52.31,93.21-205.58,79.65-265.03,168.48-36.81,55-16.89,139.8,41.06,171.76,77.56,42.77,179.7-9.74,260.96,25.48,68.38,29.64,98.61,117.31,78.9,189.18-19.71,71.87-78.92,127.42-145.15,161.59-33.8,17.44-70.28,30.55-100.3,53.89-30.03,23.34-53.21,60.62-46.41,98.03"/>
      <path class="cls-2" d="M340.44,152.61c-28.15-12.48-63.36-6.96-86.34,13.54s-32.46,54.86-23.26,84.24c12.87,41.1,55.9,65.02,97.52,76.1,41.62,11.08,85.91,13.75,124.79,32.28,66.74,31.82,105.72,120.71,69.54,185.19-52.31,93.21-205.58,79.65-265.03,168.48-36.81,55-16.89,139.8,41.06,171.76,77.56,42.77,179.7-9.74,260.96,25.48,68.38,29.64,98.61,117.31,78.9,189.18-19.71,71.87-78.92,127.42-145.15,161.59-33.8,17.44-70.28,30.55-100.3,53.89-30.03,23.34-53.21,60.62-46.41,98.03"/>
      <path class="cls-10" d="M349.09,158.13c-28.15-12.48-63.36-6.96-86.34,13.54-22.97,20.5-32.46,54.86-23.26,84.24,12.87,41.1,55.9,65.02,97.52,76.1,41.62,11.08,85.91,13.75,124.79,32.28,66.74,31.82,105.72,120.71,69.54,185.19-52.31,93.21-205.58,79.65-265.03,168.48-36.81,55-16.89,139.8,41.06,171.76,77.56,42.77,179.7-9.74,260.96,25.48,68.38,29.64,98.61,117.31,78.9,189.18-19.71,71.87-78.92,127.42-145.15,161.59-33.8,17.44-70.28,30.55-100.3,53.89s-53.21,60.62-46.41,98.03"/>
      <path class="cls-40" d="M357.74,163.65c-28.15-12.48-63.36-6.96-86.34,13.54-22.97,20.5-32.46,54.86-23.26,84.24,12.87,41.1,55.9,65.02,97.52,76.1,41.62,11.08,85.91,13.75,124.79,32.28,66.74,31.82,105.72,120.71,69.54,185.19-52.31,93.21-205.58,79.65-265.03,168.48-36.81,55-16.89,139.8,41.06,171.76,77.56,42.77,179.7-9.74,260.96,25.48,68.38,29.64,98.61,117.31,78.9,189.18-19.71,71.87-78.92,127.42-145.15,161.59-33.8,17.44-70.28,30.55-100.3,53.89-30.03,23.34-53.21,60.62-46.41,98.03"/>
      <path class="cls-11" d="M366.38,169.17c-28.15-12.48-63.36-6.96-86.34,13.54-22.97,20.5-32.46,54.86-23.26,84.24,12.87,41.1,55.9,65.02,97.52,76.1,41.62,11.08,85.91,13.75,124.79,32.28,66.74,31.82,105.72,120.71,69.54,185.19-52.31,93.21-205.58,79.65-265.03,168.48-36.81,55-16.89,139.8,41.06,171.76,77.56,42.77,179.7-9.74,260.96,25.48,68.38,29.64,98.61,117.31,78.9,189.18-19.71,71.87-78.92,127.42-145.15,161.59-33.8,17.44-70.28,30.55-100.3,53.89s-53.21,60.62-46.41,98.03"/>
      <path class="cls-13" d="M375.03,174.69c-28.15-12.48-63.36-6.96-86.34,13.54-22.97,20.5-32.46,54.86-23.26,84.24,12.87,41.1,55.9,65.02,97.52,76.1,41.62,11.08,85.91,13.75,124.79,32.28,66.74,31.82,105.72,120.71,69.54,185.19-52.31,93.21-205.58,79.65-265.03,168.48-36.81,55-16.89,139.8,41.06,171.76,77.56,42.77,179.7-9.74,260.96,25.48,68.38,29.64,98.61,117.31,78.9,189.18-19.71,71.87-78.92,127.42-145.15,161.59-33.8,17.44-70.28,30.55-100.3,53.89-30.03,23.34-53.21,60.62-46.41,98.03"/>
      <path class="cls-3" d="M383.68,180.21c-28.15-12.48-63.36-6.96-86.34,13.54-22.97,20.5-32.46,54.86-23.26,84.24,12.87,41.1,55.9,65.02,97.52,76.1,41.62,11.08,85.91,13.75,124.79,32.28,66.74,31.82,105.72,120.71,69.54,185.19-52.31,93.21-205.58,79.65-265.03,168.48-36.81,55-16.89,139.8,41.06,171.76,77.56,42.77,179.7-9.74,260.96,25.48,68.38,29.64,98.61,117.31,78.9,189.18-19.71,71.87-78.92,127.42-145.15,161.59-33.8,17.44-70.28,30.55-100.3,53.89-30.03,23.34-53.21,60.62-46.41,98.03"/>
      <path class="cls-31" d="M392.33,185.73c-28.15-12.48-63.36-6.96-86.34,13.54-22.97,20.5-32.46,54.86-23.26,84.24,12.87,41.1,55.9,65.02,97.52,76.1,41.62,11.08,85.91,13.75,124.79,32.28,66.74,31.82,105.72,120.71,69.54,185.19-52.31,93.21-205.58,79.65-265.03,168.48-36.81,55-16.89,139.8,41.06,171.76,77.56,42.77,179.7-9.74,260.96,25.48,68.38,29.64,98.61,117.31,78.9,189.18-19.71,71.87-78.92,127.42-145.15,161.59-33.8,17.44-70.28,30.55-100.3,53.89-30.03,23.34-53.21,60.62-46.41,98.03"/>
      <path class="cls-29" d="M400.98,191.25c-28.15-12.48-63.36-6.96-86.34,13.54-22.97,20.5-32.46,54.86-23.26,84.24,12.87,41.1,55.9,65.02,97.52,76.1,41.62,11.08,85.91,13.75,124.79,32.28,66.74,31.82,105.72,120.71,69.54,185.19-52.31,93.21-205.58,79.65-265.03,168.48-36.81,55-16.89,139.8,41.06,171.76,77.56,42.77,179.7-9.74,260.96,25.48,68.38,29.64,98.61,117.31,78.9,189.18-19.71,71.87-78.92,127.42-145.15,161.59-33.8,17.44-70.28,30.55-100.3,53.89-30.03,23.34-53.21,60.62-46.41,98.03"/>
      <path class="cls-30" d="M409.63,196.77c-28.15-12.48-63.36-6.96-86.34,13.54-22.97,20.5-32.46,54.86-23.26,84.24,12.87,41.1,55.9,65.02,97.52,76.1,41.62,11.08,85.91,13.75,124.79,32.28,66.74,31.82,105.72,120.71,69.54,185.19-52.31,93.21-205.58,79.65-265.03,168.48-36.81,55-16.89,139.8,41.06,171.76,77.56,42.77,179.7-9.74,260.96,25.48,68.38,29.64,98.61,117.31,78.9,189.18-19.71,71.87-78.92,127.42-145.15,161.59-33.8,17.44-70.28,30.55-100.3,53.89-30.03,23.34-53.21,60.62-46.41,98.03"/>
      <path class="cls-38" d="M418.28,202.28c-28.15-12.48-63.36-6.96-86.34,13.54-22.97,20.5-32.46,54.86-23.26,84.24,12.87,41.1,55.9,65.02,97.52,76.1,41.62,11.08,85.91,13.75,124.79,32.28,66.74,31.82,105.72,120.71,69.54,185.19-52.31,93.21-205.58,79.65-265.03,168.48-36.81,55-16.89,139.8,41.06,171.76,77.56,42.77,179.7-9.74,260.96,25.48,68.38,29.64,98.61,117.31,78.9,189.18-19.71,71.87-78.92,127.42-145.15,161.59-33.8,17.44-70.28,30.55-100.3,53.89-30.03,23.34-53.21,60.62-46.41,98.03"/>
      <path class="cls-17" d="M426.92,207.8c-28.15-12.48-63.36-6.96-86.34,13.54-22.97,20.5-32.46,54.86-23.26,84.24,12.87,41.1,55.9,65.02,97.52,76.1,41.62,11.08,85.91,13.75,124.79,32.28,66.74,31.82,105.72,120.71,69.54,185.19-52.31,93.21-205.58,79.65-265.03,168.48-36.81,55-16.89,139.8,41.06,171.76,77.56,42.77,179.7-9.74,260.96,25.48,68.38,29.64,98.61,117.31,78.9,189.18-19.71,71.87-78.92,127.42-145.15,161.59-33.8,17.44-70.28,30.55-100.3,53.89-30.03,23.34-53.21,60.62-46.41,98.03"/>
      <path class="cls-25" d="M435.57,213.32c-28.15-12.48-63.36-6.96-86.34,13.54-22.97,20.5-32.46,54.86-23.26,84.24,12.87,41.1,55.9,65.02,97.52,76.1,41.62,11.08,85.91,13.75,124.79,32.28,66.74,31.82,105.72,120.71,69.54,185.19-52.31,93.21-205.58,79.65-265.03,168.48-36.81,55-16.89,139.8,41.06,171.76,77.56,42.77,179.7-9.74,260.96,25.48,68.38,29.64,98.61,117.31,78.9,189.18-19.71,71.87-78.92,127.42-145.15,161.59-33.8,17.44-70.28,30.55-100.3,53.89-30.03,23.34-53.21,60.62-46.41,98.03"/>
      <path class="cls-15" d="M444.22,218.84c-28.15-12.48-63.36-6.96-86.34,13.54-22.97,20.5-32.46,54.86-23.26,84.24,12.87,41.1,55.9,65.02,97.52,76.1,41.62,11.08,85.91,13.75,124.79,32.28,66.74,31.82,105.72,120.71,69.54,185.19-52.31,93.21-205.58,79.65-265.03,168.48-36.81,55-16.89,139.8,41.06,171.76,77.56,42.77,179.7-9.74,260.96,25.48,68.38,29.64,98.61,117.31,78.9,189.18-19.71,71.87-78.92,127.42-145.15,161.59-33.8,17.44-70.28,30.55-100.3,53.89-30.03,23.34-53.21,60.62-46.41,98.03"/>
      <path class="cls-35" d="M452.87,224.36c-28.15-12.48-63.36-6.96-86.34,13.54-22.97,20.5-32.46,54.86-23.26,84.24,12.87,41.1,55.9,65.02,97.52,76.1,41.62,11.08,85.91,13.75,124.79,32.28,66.74,31.82,105.72,120.71,69.54,185.19-52.31,93.21-205.58,79.65-265.03,168.48-36.81,55-16.89,139.8,41.06,171.76,77.56,42.77,179.7-9.74,260.96,25.48,68.38,29.64,98.61,117.31,78.9,189.18-19.71,71.87-78.92,127.42-145.15,161.59-33.8,17.44-70.28,30.55-100.3,53.89-30.03,23.34-53.21,60.62-46.41,98.03"/>
    </g>
  </g>
</svg>