<?xml version="1.0" encoding="UTF-8"?>
<svg id="Layer_2" data-name="Layer 2" xmlns="http://www.w3.org/2000/svg" xmlns:xlink="http://www.w3.org/1999/xlink" viewBox="0 0 2610.82 550.65">
  <defs>
    <style>
      .cls-1 {
        stroke: url(#New_Gradient_Swatch_copy-2);
      }

      .cls-1, .cls-2, .cls-3, .cls-4, .cls-5, .cls-6, .cls-7, .cls-8, .cls-9, .cls-10, .cls-11, .cls-12, .cls-13, .cls-14, .cls-15, .cls-16, .cls-17, .cls-18, .cls-19, .cls-20, .cls-21, .cls-22 {
        fill: none;
        stroke-miterlimit: 10;
        stroke-width: 5px;
      }

      .cls-2 {
        stroke: url(#New_Gradient_Swatch_copy-18);
      }

      .cls-3 {
        stroke: url(#New_Gradient_Swatch_copy-14);
      }

      .cls-4 {
        stroke: url(#New_Gradient_Swatch_copy-5);
      }

      .cls-5 {
        stroke: url(#New_Gradient_Swatch_copy-3);
      }

      .cls-6 {
        stroke: url(#New_Gradient_Swatch_copy-12);
      }

      .cls-7 {
        stroke: url(#New_Gradient_Swatch_copy-15);
      }

      .cls-8 {
        stroke: url(#New_Gradient_Swatch_copy-22);
      }

      .cls-9 {
        stroke: url(#New_Gradient_Swatch_copy-19);
      }

      .cls-10 {
        stroke: url(#New_Gradient_Swatch_copy-13);
      }

      .cls-11 {
        stroke: url(#New_Gradient_Swatch_copy-9);
      }

      .cls-12 {
        stroke: url(#New_Gradient_Swatch_copy);
      }

      .cls-13 {
        stroke: url(#New_Gradient_Swatch_copy-20);
      }

      .cls-14 {
        stroke: url(#New_Gradient_Swatch_copy-17);
      }

      .cls-15 {
        stroke: url(#New_Gradient_Swatch_copy-10);
      }

      .cls-16 {
        stroke: url(#New_Gradient_Swatch_copy-21);
      }

      .cls-17 {
        stroke: url(#New_Gradient_Swatch_copy-16);
      }

      .cls-18 {
        stroke: url(#New_Gradient_Swatch_copy-8);
      }

      .cls-19 {
        stroke: url(#New_Gradient_Swatch_copy-4);
      }

      .cls-20 {
        stroke: url(#New_Gradient_Swatch_copy-7);
      }

      .cls-21 {
        stroke: url(#New_Gradient_Swatch_copy-6);
      }

      .cls-22 {
        stroke: url(#New_Gradient_Swatch_copy-11);
      }
    </style>
    <linearGradient id="New_Gradient_Swatch_copy" data-name="New Gradient Swatch copy" x1="1151.23" y1="473.52" x2="1151.23" y2="0" gradientUnits="userSpaceOnUse">
      <stop offset="0" stop-color="#f2b79f"/>
      <stop offset=".22" stop-color="#facacf"/>
      <stop offset=".35" stop-color="#fed4e7"/>
      <stop offset=".5" stop-color="#f6cef1"/>
      <stop offset=".72" stop-color="#efcafb"/>
      <stop offset="1" stop-color="#edc9ff"/>
    </linearGradient>
    <linearGradient id="New_Gradient_Swatch_copy-2" data-name="New Gradient Swatch copy" x1="1165.91" y1="477.19" x2="1165.91" y2="3.67" xlink:href="#New_Gradient_Swatch_copy"/>
    <linearGradient id="New_Gradient_Swatch_copy-3" data-name="New Gradient Swatch copy" x1="1180.6" y1="480.87" x2="1180.6" y2="7.35" xlink:href="#New_Gradient_Swatch_copy"/>
    <linearGradient id="New_Gradient_Swatch_copy-4" data-name="New Gradient Swatch copy" x1="1195.28" y1="484.54" x2="1195.28" y2="11.02" xlink:href="#New_Gradient_Swatch_copy"/>
    <linearGradient id="New_Gradient_Swatch_copy-5" data-name="New Gradient Swatch copy" x1="1209.96" y1="488.21" x2="1209.96" y2="14.69" xlink:href="#New_Gradient_Swatch_copy"/>
    <linearGradient id="New_Gradient_Swatch_copy-6" data-name="New Gradient Swatch copy" x1="1224.65" y1="491.88" x2="1224.65" y2="18.36" xlink:href="#New_Gradient_Swatch_copy"/>
    <linearGradient id="New_Gradient_Swatch_copy-7" data-name="New Gradient Swatch copy" x1="1239.33" y1="495.56" x2="1239.33" y2="22.04" xlink:href="#New_Gradient_Swatch_copy"/>
    <linearGradient id="New_Gradient_Swatch_copy-8" data-name="New Gradient Swatch copy" x1="1254.02" y1="499.23" x2="1254.02" y2="25.71" xlink:href="#New_Gradient_Swatch_copy"/>
    <linearGradient id="New_Gradient_Swatch_copy-9" data-name="New Gradient Swatch copy" x1="1268.7" y1="502.9" x2="1268.7" y2="29.38" xlink:href="#New_Gradient_Swatch_copy"/>
    <linearGradient id="New_Gradient_Swatch_copy-10" data-name="New Gradient Swatch copy" x1="1283.38" y1="506.57" x2="1283.38" y2="33.06" xlink:href="#New_Gradient_Swatch_copy"/>
    <linearGradient id="New_Gradient_Swatch_copy-11" data-name="New Gradient Swatch copy" x1="1298.07" y1="510.25" x2="1298.07" y2="36.73" xlink:href="#New_Gradient_Swatch_copy"/>
    <linearGradient id="New_Gradient_Swatch_copy-12" data-name="New Gradient Swatch copy" x1="1312.75" y1="513.92" x2="1312.75" y2="40.4" xlink:href="#New_Gradient_Swatch_copy"/>
    <linearGradient id="New_Gradient_Swatch_copy-13" data-name="New Gradient Swatch copy" x1="1327.43" y1="517.59" x2="1327.43" y2="44.07" xlink:href="#New_Gradient_Swatch_copy"/>
    <linearGradient id="New_Gradient_Swatch_copy-14" data-name="New Gradient Swatch copy" x1="1342.12" y1="521.27" x2="1342.12" y2="47.75" xlink:href="#New_Gradient_Swatch_copy"/>
    <linearGradient id="New_Gradient_Swatch_copy-15" data-name="New Gradient Swatch copy" x1="1356.8" y1="524.94" x2="1356.8" y2="51.42" xlink:href="#New_Gradient_Swatch_copy"/>
    <linearGradient id="New_Gradient_Swatch_copy-16" data-name="New Gradient Swatch copy" x1="1371.48" y1="528.61" x2="1371.48" y2="55.09" xlink:href="#New_Gradient_Swatch_copy"/>
    <linearGradient id="New_Gradient_Swatch_copy-17" data-name="New Gradient Swatch copy" x1="1386.17" y1="532.28" x2="1386.17" y2="58.76" xlink:href="#New_Gradient_Swatch_copy"/>
    <linearGradient id="New_Gradient_Swatch_copy-18" data-name="New Gradient Swatch copy" x1="1400.85" y1="535.96" x2="1400.85" y2="62.44" xlink:href="#New_Gradient_Swatch_copy"/>
    <linearGradient id="New_Gradient_Swatch_copy-19" data-name="New Gradient Swatch copy" x1="1415.54" y1="539.63" x2="1415.54" y2="66.11" xlink:href="#New_Gradient_Swatch_copy"/>
    <linearGradient id="New_Gradient_Swatch_copy-20" data-name="New Gradient Swatch copy" x1="1430.22" y1="543.3" x2="1430.22" y2="69.78" xlink:href="#New_Gradient_Swatch_copy"/>
    <linearGradient id="New_Gradient_Swatch_copy-21" data-name="New Gradient Swatch copy" x1="1444.9" y1="546.98" x2="1444.9" y2="73.46" xlink:href="#New_Gradient_Swatch_copy"/>
    <linearGradient id="New_Gradient_Swatch_copy-22" data-name="New Gradient Swatch copy" x1="1459.59" y1="550.65" x2="1459.59" y2="77.13" xlink:href="#New_Gradient_Swatch_copy"/>
  </defs>
  <g id="Layer_1-2" data-name="Layer 1">
    <g>
      <path class="cls-12" d="M4.09,473.15c-7.18-48.57,10.34-100.15,45.6-134.32,35.27-34.17,87.38-50.03,135.7-41.32,76.83,13.85,145.14,84.66,220.62,64.74,49.37-13.03,79.92-60.45,114.16-98.33s90.39-70.02,134.06-43.56c30.51,18.49,40.24,57.18,57.73,88.27,48.69,86.56,179.48,112.22,257.26,50.48,40.9-32.46,75.13-86.69,127.22-83.09,37.28,2.57,64.31,34.9,95.65,55.25,87.58,56.87,207.98,15.82,286.91-52.56,78.93-68.38,134.72-160.52,214.89-227.44,29.55-24.67,64.15-46.34,102.59-48.57,36.58-2.12,71.63,13.56,104.46,29.83,143.87,71.31,278.6,161.01,399.89,266.23"/>
      <path class="cls-1" d="M18.77,476.83c-7.18-48.57,10.34-100.15,45.6-134.32,35.27-34.17,87.38-50.03,135.7-41.32,76.83,13.85,145.14,84.66,220.62,64.74,49.37-13.03,79.92-60.45,114.16-98.33,34.24-37.88,90.39-70.02,134.06-43.56,30.51,18.49,40.24,57.18,57.73,88.27,48.69,86.56,179.48,112.22,257.26,50.48,40.9-32.46,75.13-86.69,127.22-83.09,37.28,2.57,64.31,34.9,95.65,55.25,87.58,56.87,207.98,15.82,286.91-52.56,78.93-68.38,134.72-160.52,214.89-227.44,29.55-24.67,64.15-46.34,102.59-48.57,36.58-2.12,71.63,13.56,104.46,29.83,143.87,71.31,278.6,161.01,399.89,266.23"/>
      <path class="cls-5" d="M33.45,480.5c-7.18-48.57,10.34-100.15,45.6-134.32,35.27-34.17,87.38-50.03,135.7-41.32,76.83,13.85,145.14,84.66,220.62,64.74,49.37-13.03,79.92-60.45,114.16-98.33,34.24-37.88,90.39-70.02,134.06-43.56,30.51,18.49,40.24,57.18,57.73,88.27,48.69,86.56,179.48,112.22,257.26,50.48,40.9-32.46,75.13-86.69,127.22-83.09,37.28,2.57,64.31,34.9,95.65,55.25,87.58,56.87,207.98,15.82,286.91-52.56,78.93-68.38,134.72-160.52,214.89-227.44,29.55-24.67,64.15-46.34,102.59-48.57,36.58-2.12,71.63,13.56,104.46,29.83,143.87,71.31,278.6,161.01,399.89,266.23"/>
      <path class="cls-19" d="M48.14,484.17c-7.18-48.57,10.34-100.15,45.6-134.32,35.27-34.17,87.38-50.03,135.7-41.32,76.83,13.85,145.14,84.66,220.62,64.74,49.37-13.03,79.92-60.45,114.16-98.33,34.24-37.88,90.39-70.02,134.06-43.56,30.51,18.49,40.24,57.18,57.73,88.27,48.69,86.56,179.48,112.22,257.26,50.48,40.9-32.46,75.13-86.69,127.22-83.09,37.28,2.57,64.31,34.9,95.65,55.25,87.58,56.87,207.98,15.82,286.91-52.56,78.93-68.38,134.72-160.52,214.89-227.44,29.55-24.67,64.15-46.34,102.59-48.57,36.58-2.12,71.63,13.56,104.46,29.83,143.87,71.31,278.6,161.01,399.89,266.23"/>
      <path class="cls-4" d="M62.82,487.85c-7.18-48.57,10.34-100.15,45.6-134.32,35.27-34.17,87.38-50.03,135.7-41.32,76.83,13.85,145.14,84.66,220.62,64.74,49.37-13.03,79.92-60.45,114.16-98.33,34.24-37.88,90.39-70.02,134.06-43.56,30.51,18.49,40.24,57.18,57.73,88.27,48.69,86.56,179.48,112.22,257.26,50.48,40.9-32.46,75.13-86.69,127.22-83.09,37.28,2.57,64.31,34.9,95.65,55.25,87.58,56.87,207.98,15.82,286.91-52.56,78.93-68.38,134.72-160.52,214.89-227.44,29.55-24.67,64.15-46.34,102.59-48.57,36.58-2.12,71.63,13.56,104.46,29.83,143.87,71.31,278.6,161.01,399.89,266.23"/>
      <path class="cls-21" d="M77.5,491.52c-7.18-48.57,10.34-100.15,45.6-134.32s87.38-50.03,135.7-41.32c76.83,13.85,145.14,84.66,220.62,64.74,49.37-13.03,79.92-60.45,114.16-98.33,34.24-37.88,90.39-70.02,134.06-43.56,30.51,18.49,40.24,57.18,57.73,88.27,48.69,86.56,179.48,112.22,257.26,50.48,40.9-32.46,75.13-86.69,127.22-83.09,37.28,2.57,64.31,34.9,95.65,55.25,87.58,56.87,207.98,15.82,286.91-52.56,78.93-68.38,134.72-160.52,214.89-227.44,29.55-24.67,64.15-46.34,102.59-48.57,36.58-2.12,71.63,13.56,104.46,29.83,143.87,71.31,278.6,161.01,399.89,266.23"/>
      <path class="cls-20" d="M92.19,495.19c-7.18-48.57,10.34-100.15,45.6-134.32,35.27-34.17,87.38-50.03,135.7-41.32,76.83,13.85,145.14,84.66,220.62,64.74,49.37-13.03,79.92-60.45,114.16-98.33s90.39-70.02,134.06-43.56c30.51,18.49,40.24,57.18,57.73,88.27,48.69,86.56,179.48,112.22,257.26,50.48,40.9-32.46,75.13-86.69,127.22-83.09,37.28,2.57,64.31,34.9,95.65,55.25,87.58,56.87,207.98,15.82,286.91-52.56,78.93-68.38,134.72-160.52,214.89-227.44,29.55-24.67,64.15-46.34,102.59-48.57,36.58-2.12,71.63,13.56,104.46,29.83,143.87,71.31,278.6,161.01,399.89,266.23"/>
      <path class="cls-18" d="M106.87,498.86c-7.18-48.57,10.34-100.15,45.6-134.32,35.27-34.17,87.38-50.03,135.7-41.32,76.83,13.85,145.14,84.66,220.62,64.74,49.37-13.03,79.92-60.45,114.16-98.33,34.24-37.88,90.39-70.02,134.06-43.56,30.51,18.49,40.24,57.18,57.73,88.27,48.69,86.56,179.48,112.22,257.26,50.48,40.9-32.46,75.13-86.69,127.22-83.09,37.28,2.57,64.31,34.9,95.65,55.25,87.58,56.87,207.98,15.82,286.91-52.56,78.93-68.38,134.72-160.52,214.89-227.44,29.55-24.67,64.15-46.34,102.59-48.57,36.58-2.12,71.63,13.56,104.46,29.83,143.87,71.31,278.6,161.01,399.89,266.23"/>
      <path class="cls-11" d="M121.56,502.54c-7.18-48.57,10.34-100.15,45.6-134.32s87.38-50.03,135.7-41.32c76.83,13.85,145.14,84.66,220.62,64.74,49.37-13.03,79.92-60.45,114.16-98.33,34.24-37.88,90.39-70.02,134.06-43.56,30.51,18.49,40.24,57.18,57.73,88.27,48.69,86.56,179.48,112.22,257.26,50.48,40.9-32.46,75.13-86.69,127.22-83.09,37.28,2.57,64.31,34.9,95.65,55.25,87.58,56.87,207.98,15.82,286.91-52.56,78.93-68.38,134.72-160.52,214.89-227.44,29.55-24.67,64.15-46.34,102.59-48.57,36.58-2.12,71.63,13.56,104.46,29.83,143.87,71.31,278.6,161.01,399.89,266.23"/>
      <path class="cls-15" d="M136.24,506.21c-7.18-48.57,10.34-100.15,45.6-134.32,35.27-34.17,87.38-50.03,135.7-41.32,76.83,13.85,145.14,84.66,220.62,64.74,49.37-13.03,79.92-60.45,114.16-98.33,34.24-37.88,90.39-70.02,134.06-43.56,30.51,18.49,40.24,57.18,57.73,88.27,48.69,86.56,179.48,112.22,257.26,50.48,40.9-32.46,75.13-86.69,127.22-83.09,37.28,2.57,64.31,34.9,95.65,55.25,87.58,56.87,207.98,15.82,286.91-52.56,78.93-68.38,134.72-160.52,214.89-227.44,29.55-24.67,64.15-46.34,102.59-48.57,36.58-2.12,71.63,13.56,104.46,29.83,143.87,71.31,278.6,161.01,399.89,266.23"/>
      <path class="cls-22" d="M150.92,509.88c-7.18-48.57,10.34-100.15,45.6-134.32,35.27-34.17,87.38-50.03,135.7-41.32,76.83,13.85,145.14,84.66,220.62,64.74,49.37-13.03,79.92-60.45,114.16-98.33,34.24-37.88,90.39-70.02,134.06-43.56,30.51,18.49,40.24,57.18,57.73,88.27,48.69,86.56,179.48,112.22,257.26,50.48,40.9-32.46,75.13-86.69,127.22-83.09,37.28,2.57,64.31,34.9,95.65,55.25,87.58,56.87,207.98,15.82,286.91-52.56,78.93-68.38,134.72-160.52,214.89-227.44,29.55-24.67,64.15-46.34,102.59-48.57,36.58-2.12,71.63,13.56,104.46,29.83,143.87,71.31,278.6,161.01,399.89,266.23"/>
      <path class="cls-6" d="M165.61,513.56c-7.18-48.57,10.34-100.15,45.6-134.32,35.27-34.17,87.38-50.03,135.7-41.32,76.83,13.85,145.14,84.66,220.62,64.74,49.37-13.03,79.92-60.45,114.16-98.33s90.39-70.02,134.06-43.56c30.51,18.49,40.24,57.18,57.73,88.27,48.69,86.56,179.48,112.22,257.26,50.48,40.9-32.46,75.13-86.69,127.22-83.09,37.28,2.57,64.31,34.9,95.65,55.25,87.58,56.87,207.98,15.82,286.91-52.56,78.93-68.38,134.72-160.52,214.89-227.44,29.55-24.67,64.15-46.34,102.59-48.57,36.58-2.12,71.63,13.56,104.46,29.83,143.87,71.31,278.6,161.01,399.89,266.23"/>
      <path class="cls-10" d="M180.29,517.23c-7.18-48.57,10.34-100.15,45.6-134.32,35.27-34.17,87.38-50.03,135.7-41.32,76.83,13.85,145.14,84.66,220.62,64.74,49.37-13.03,79.92-60.45,114.16-98.33,34.24-37.88,90.39-70.02,134.06-43.56,30.51,18.49,40.24,57.18,57.73,88.27,48.69,86.56,179.48,112.22,257.26,50.48,40.9-32.46,75.13-86.69,127.22-83.09,37.28,2.57,64.31,34.9,95.65,55.25,87.58,56.87,207.98,15.82,286.91-52.56,78.93-68.38,134.72-160.52,214.89-227.44,29.55-24.67,64.15-46.34,102.59-48.57,36.58-2.12,71.63,13.56,104.46,29.83,143.87,71.31,278.6,161.01,399.89,266.23"/>
      <path class="cls-3" d="M194.97,520.9c-7.18-48.57,10.34-100.15,45.6-134.32,35.27-34.17,87.38-50.03,135.7-41.32,76.83,13.85,145.14,84.66,220.62,64.74,49.37-13.03,79.92-60.45,114.16-98.33s90.39-70.02,134.06-43.56c30.51,18.49,40.24,57.18,57.73,88.27,48.69,86.56,179.48,112.22,257.26,50.48,40.9-32.46,75.13-86.69,127.22-83.09,37.28,2.57,64.31,34.9,95.65,55.25,87.58,56.87,207.98,15.82,286.91-52.56,78.93-68.38,134.72-160.52,214.89-227.44,29.55-24.67,64.15-46.34,102.59-48.57,36.58-2.12,71.63,13.56,104.46,29.83,143.87,71.31,278.6,161.01,399.89,266.23"/>
      <path class="cls-7" d="M209.66,524.57c-7.18-48.57,10.34-100.15,45.6-134.32,35.27-34.17,87.38-50.03,135.7-41.32,76.83,13.85,145.14,84.66,220.62,64.74,49.37-13.03,79.92-60.45,114.16-98.33,34.24-37.88,90.39-70.02,134.06-43.56,30.51,18.49,40.24,57.18,57.73,88.27,48.69,86.56,179.48,112.22,257.26,50.48,40.9-32.46,75.13-86.69,127.22-83.09,37.28,2.57,64.31,34.9,95.65,55.25,87.58,56.87,207.98,15.82,286.91-52.56,78.93-68.38,134.72-160.52,214.89-227.44,29.55-24.67,64.15-46.34,102.59-48.57,36.58-2.12,71.63,13.56,104.46,29.83,143.87,71.31,278.6,161.01,399.89,266.23"/>
      <path class="cls-17" d="M224.34,528.25c-7.18-48.57,10.34-100.15,45.6-134.32,35.27-34.17,87.38-50.03,135.7-41.32,76.83,13.85,145.14,84.66,220.62,64.74,49.37-13.03,79.92-60.45,114.16-98.33,34.24-37.88,90.39-70.02,134.06-43.56,30.51,18.49,40.24,57.18,57.73,88.27,48.69,86.56,179.48,112.22,257.26,50.48,40.9-32.46,75.13-86.69,127.22-83.09,37.28,2.57,64.31,34.9,95.65,55.25,87.58,56.87,207.98,15.82,286.91-52.56,78.93-68.38,134.72-160.52,214.89-227.44,29.55-24.67,64.15-46.34,102.59-48.57,36.58-2.12,71.63,13.56,104.46,29.83,143.87,71.31,278.6,161.01,399.89,266.23"/>
      <path class="cls-14" d="M239.02,531.92c-7.18-48.57,10.34-100.15,45.6-134.32,35.27-34.17,87.38-50.03,135.7-41.32,76.83,13.85,145.14,84.66,220.62,64.74,49.37-13.03,79.92-60.45,114.16-98.33s90.39-70.02,134.06-43.56c30.51,18.49,40.24,57.18,57.73,88.27,48.69,86.56,179.48,112.22,257.26,50.48,40.9-32.46,75.13-86.69,127.22-83.09,37.28,2.57,64.31,34.9,95.65,55.25,87.58,56.87,207.98,15.82,286.91-52.56,78.93-68.38,134.72-160.52,214.89-227.44,29.55-24.67,64.15-46.34,102.59-48.57,36.58-2.12,71.63,13.56,104.46,29.83,143.87,71.31,278.6,161.01,399.89,266.23"/>
      <path class="cls-2" d="M253.71,535.59c-7.18-48.57,10.34-100.15,45.6-134.32,35.27-34.17,87.38-50.03,135.7-41.32,76.83,13.85,145.14,84.66,220.62,64.74,49.37-13.03,79.92-60.45,114.16-98.33,34.24-37.88,90.39-70.02,134.06-43.56,30.51,18.49,40.24,57.18,57.73,88.27,48.69,86.56,179.48,112.22,257.26,50.48,40.9-32.46,75.13-86.69,127.22-83.09,37.28,2.57,64.31,34.9,95.65,55.25,87.58,56.87,207.98,15.82,286.91-52.56,78.93-68.38,134.72-160.52,214.89-227.44,29.55-24.67,64.15-46.34,102.59-48.57,36.58-2.12,71.63,13.56,104.46,29.83,143.87,71.31,278.6,161.01,399.89,266.23"/>
      <path class="cls-9" d="M268.39,539.26c-7.18-48.57,10.34-100.15,45.6-134.32,35.27-34.17,87.38-50.03,135.7-41.32,76.83,13.85,145.14,84.66,220.62,64.74,49.37-13.03,79.92-60.45,114.16-98.33s90.39-70.02,134.06-43.56c30.51,18.49,40.24,57.18,57.73,88.27,48.69,86.56,179.48,112.22,257.26,50.48,40.9-32.46,75.13-86.69,127.22-83.09,37.28,2.57,64.31,34.9,95.65,55.25,87.58,56.87,207.98,15.82,286.91-52.56,78.93-68.38,134.72-160.52,214.89-227.44,29.55-24.67,64.15-46.34,102.59-48.57,36.58-2.12,71.63,13.56,104.46,29.83,143.87,71.31,278.6,161.01,399.89,266.23"/>
      <path class="cls-13" d="M283.08,542.94c-7.18-48.57,10.34-100.15,45.6-134.32,35.27-34.17,87.38-50.03,135.7-41.32,76.83,13.85,145.14,84.66,220.62,64.74,49.37-13.03,79.92-60.45,114.16-98.33s90.39-70.02,134.06-43.56c30.51,18.49,40.24,57.18,57.73,88.27,48.69,86.56,179.48,112.22,257.26,50.48,40.9-32.46,75.13-86.69,127.22-83.09,37.28,2.57,64.31,34.9,95.65,55.25,87.58,56.87,207.98,15.82,286.91-52.56,78.93-68.38,134.72-160.52,214.89-227.44,29.55-24.67,64.15-46.34,102.59-48.57,36.58-2.12,71.63,13.56,104.46,29.83,143.87,71.31,278.6,161.01,399.89,266.23"/>
      <path class="cls-16" d="M297.76,546.61c-7.18-48.57,10.34-100.15,45.6-134.32,35.27-34.17,87.38-50.03,135.7-41.32,76.83,13.85,145.14,84.66,220.62,64.74,49.37-13.03,79.92-60.45,114.16-98.33,34.24-37.88,90.39-70.02,134.06-43.56,30.51,18.49,40.24,57.18,57.73,88.27,48.69,86.56,179.48,112.22,257.26,50.48,40.9-32.46,75.13-86.69,127.22-83.09,37.28,2.57,64.31,34.9,95.65,55.25,87.58,56.87,207.98,15.82,286.91-52.56,78.93-68.38,134.72-160.52,214.89-227.44,29.55-24.67,64.15-46.34,102.59-48.57,36.58-2.12,71.63,13.56,104.46,29.83,143.87,71.31,278.6,161.01,399.89,266.23"/>
      <path class="cls-8" d="M312.44,550.28c-7.18-48.57,10.34-100.15,45.6-134.32,35.27-34.17,87.38-50.03,135.7-41.32,76.83,13.85,145.14,84.66,220.62,64.74,49.37-13.03,79.92-60.45,114.16-98.33s90.39-70.02,134.06-43.56c30.51,18.49,40.24,57.18,57.73,88.27,48.69,86.56,179.48,112.22,257.26,50.48,40.9-32.46,75.13-86.69,127.22-83.09,37.28,2.57,64.31,34.9,95.65,55.25,87.58,56.87,207.98,15.82,286.91-52.56,78.93-68.38,134.72-160.52,214.89-227.44,29.55-24.67,64.15-46.34,102.59-48.57,36.58-2.12,71.63,13.56,104.46,29.83,143.87,71.31,278.6,161.01,399.89,266.23"/>
    </g>
  </g>
</svg>