<?xml version="1.0" encoding="UTF-8"?>
<svg id="Layer_2" data-name="Layer 2" xmlns="http://www.w3.org/2000/svg" xmlns:xlink="http://www.w3.org/1999/xlink" viewBox="0 0 1375.79 1202.36">
  <defs>
    <style>
      * {
        opacity: 0.83;
      }

      .cls-1 {
        stroke: url(#New_Gradient_Swatch_copy-13);
      }

      .cls-1, .cls-2, .cls-3, .cls-4, .cls-5, .cls-6, .cls-7, .cls-8, .cls-9, .cls-10, .cls-11, .cls-12, .cls-13, .cls-14, .cls-15, .cls-16, .cls-17, .cls-18, .cls-19, .cls-20, .cls-21 {
        fill: none;
        stroke-miterlimit: 10;
        stroke-width: 3.15px;
      }

      .cls-2 {
        stroke: url(#New_Gradient_Swatch_copy-16);
      }

      .cls-3 {
        stroke: url(#New_Gradient_Swatch_copy-8);
      }

      .cls-4 {
        stroke: url(#New_Gradient_Swatch_copy-7);
      }

      .cls-5 {
        stroke: url(#New_Gradient_Swatch_copy-19);
      }

      .cls-6 {
        stroke: url(#New_Gradient_Swatch_copy-11);
      }

      .cls-7 {
        stroke: url(#New_Gradient_Swatch_copy-14);
      }

      .cls-8 {
        stroke: url(#New_Gradient_Swatch_copy-2);
      }

      .cls-9 {
        stroke: url(#New_Gradient_Swatch_copy-18);
      }

      .cls-10 {
        stroke: url(#New_Gradient_Swatch_copy-21);
      }

      .cls-11 {
        stroke: url(#New_Gradient_Swatch_copy-3);
      }

      .cls-12 {
        stroke: url(#New_Gradient_Swatch_copy-6);
      }

      .cls-13 {
        stroke: url(#New_Gradient_Swatch_copy-4);
      }

      .cls-14 {
        stroke: url(#New_Gradient_Swatch_copy-15);
      }

      .cls-15 {
        stroke: url(#New_Gradient_Swatch_copy-10);
      }

      .cls-16 {
        stroke: url(#New_Gradient_Swatch_copy-12);
      }

      .cls-17 {
        stroke: url(#New_Gradient_Swatch_copy-5);
      }

      .cls-18 {
        stroke: url(#New_Gradient_Swatch_copy);
      }

      .cls-19 {
        stroke: url(#New_Gradient_Swatch_copy-9);
      }

      .cls-20 {
        stroke: url(#New_Gradient_Swatch_copy-20);
      }

      .cls-21 {
        stroke: url(#New_Gradient_Swatch_copy-17);
      }
    </style>
    <linearGradient id="New_Gradient_Swatch_copy" data-name="New Gradient Swatch copy" x1="252.19" y1="1053.1" x2="893.1" y2="620.8" gradientUnits="userSpaceOnUse">
      <stop offset="0" stop-color="#f2b79f"/>
      <stop offset=".22" stop-color="#facacf"/>
      <stop offset=".35" stop-color="#fed4e7"/>
      <stop offset=".5" stop-color="#f6cef1"/>
      <stop offset=".72" stop-color="#efcafb"/>
      <stop offset="1" stop-color="#edc9ff"/>
    </linearGradient>
    <linearGradient id="New_Gradient_Swatch_copy-2" data-name="New Gradient Swatch copy" x1="256.78" y1="1046.71" x2="897.7" y2="614.4" xlink:href="#New_Gradient_Swatch_copy"/>
    <linearGradient id="New_Gradient_Swatch_copy-3" data-name="New Gradient Swatch copy" x1="261.38" y1="1040.31" x2="902.29" y2="608" xlink:href="#New_Gradient_Swatch_copy"/>
    <linearGradient id="New_Gradient_Swatch_copy-4" data-name="New Gradient Swatch copy" x1="265.97" y1="1033.91" x2="906.89" y2="601.61" xlink:href="#New_Gradient_Swatch_copy"/>
    <linearGradient id="New_Gradient_Swatch_copy-5" data-name="New Gradient Swatch copy" x1="270.56" y1="1027.51" x2="911.48" y2="595.21" xlink:href="#New_Gradient_Swatch_copy"/>
    <linearGradient id="New_Gradient_Swatch_copy-6" data-name="New Gradient Swatch copy" x1="275.16" y1="1021.12" x2="916.08" y2="588.81" xlink:href="#New_Gradient_Swatch_copy"/>
    <linearGradient id="New_Gradient_Swatch_copy-7" data-name="New Gradient Swatch copy" x1="279.75" y1="1014.72" x2="920.67" y2="582.41" xlink:href="#New_Gradient_Swatch_copy"/>
    <linearGradient id="New_Gradient_Swatch_copy-8" data-name="New Gradient Swatch copy" x1="284.35" y1="1008.32" x2="925.27" y2="576.02" xlink:href="#New_Gradient_Swatch_copy"/>
    <linearGradient id="New_Gradient_Swatch_copy-9" data-name="New Gradient Swatch copy" x1="288.94" y1="1001.92" x2="929.86" y2="569.62" xlink:href="#New_Gradient_Swatch_copy"/>
    <linearGradient id="New_Gradient_Swatch_copy-10" data-name="New Gradient Swatch copy" x1="293.54" y1="995.53" x2="934.45" y2="563.22" xlink:href="#New_Gradient_Swatch_copy"/>
    <linearGradient id="New_Gradient_Swatch_copy-11" data-name="New Gradient Swatch copy" x1="298.13" y1="989.13" x2="939.05" y2="556.82" xlink:href="#New_Gradient_Swatch_copy"/>
    <linearGradient id="New_Gradient_Swatch_copy-12" data-name="New Gradient Swatch copy" x1="302.73" y1="982.73" x2="943.64" y2="550.43" xlink:href="#New_Gradient_Swatch_copy"/>
    <linearGradient id="New_Gradient_Swatch_copy-13" data-name="New Gradient Swatch copy" x1="307.32" y1="976.33" x2="948.24" y2="544.03" xlink:href="#New_Gradient_Swatch_copy"/>
    <linearGradient id="New_Gradient_Swatch_copy-14" data-name="New Gradient Swatch copy" x1="311.91" y1="969.93" x2="952.83" y2="537.63" xlink:href="#New_Gradient_Swatch_copy"/>
    <linearGradient id="New_Gradient_Swatch_copy-15" data-name="New Gradient Swatch copy" x1="316.51" y1="963.54" x2="957.43" y2="531.23" xlink:href="#New_Gradient_Swatch_copy"/>
    <linearGradient id="New_Gradient_Swatch_copy-16" data-name="New Gradient Swatch copy" x1="321.1" y1="957.14" x2="962.02" y2="524.84" xlink:href="#New_Gradient_Swatch_copy"/>
    <linearGradient id="New_Gradient_Swatch_copy-17" data-name="New Gradient Swatch copy" x1="325.7" y1="950.74" x2="966.61" y2="518.44" xlink:href="#New_Gradient_Swatch_copy"/>
    <linearGradient id="New_Gradient_Swatch_copy-18" data-name="New Gradient Swatch copy" x1="330.29" y1="944.34" x2="971.21" y2="512.04" xlink:href="#New_Gradient_Swatch_copy"/>
    <linearGradient id="New_Gradient_Swatch_copy-19" data-name="New Gradient Swatch copy" x1="334.89" y1="937.95" x2="975.8" y2="505.64" xlink:href="#New_Gradient_Swatch_copy"/>
    <linearGradient id="New_Gradient_Swatch_copy-20" data-name="New Gradient Swatch copy" x1="339.48" y1="931.55" x2="980.4" y2="499.25" xlink:href="#New_Gradient_Swatch_copy"/>
    <linearGradient id="New_Gradient_Swatch_copy-21" data-name="New Gradient Swatch copy" x1="344.07" y1="925.15" x2="984.99" y2="492.85" xlink:href="#New_Gradient_Swatch_copy"/>
  </defs>
  <g id="Layer_1-2" data-name="Layer 1">
    <g>
      <path class="cls-18" d="M512.72,147.95c-22.69-19.76-57.55-24.15-84.42-10.62-26.87,13.53-44.12,44.14-41.76,74.14,2.2,27.93,19.6,53.68,18.05,81.65-1.96,35.32-35.32,62.92-70.24,68.52-34.93,5.6-70.34-6.23-102.15-21.69-38.86-18.88-81.53-44.16-122.26-29.78-34.76,12.27-53.55,48.93-68.98,82.4-16.54,35.89-33.3,72.51-38.13,111.73s4.09,82.2,32.59,109.58c22.53,21.65,54.74,31.52,75.94,54.48,34.2,37.05,29.28,94.01,28.8,144.43-.31,32.5,2.4,66.02,17,95.05,14.61,29.03,43.39,52.79,75.89,53.29,27.6.42,52.46-15.16,77.51-26.78,25.04-11.62,56.08-19.13,79.05-3.81,34.43,22.95,24.97,75.46,39.96,114.03,19.41,49.94,80.67,71.68,134,66.54s102.32-30.25,153.01-47.61c194.04-66.47,424.38-10.43,566.18,137.77"/>
      <path class="cls-8" d="M517.31,141.55c-22.69-19.76-57.55-24.15-84.42-10.62-26.87,13.53-44.12,44.14-41.76,74.14,2.2,27.93,19.6,53.68,18.05,81.65-1.96,35.32-35.32,62.92-70.24,68.52-34.93,5.6-70.34-6.23-102.15-21.69-38.86-18.88-81.53-44.16-122.26-29.78-34.76,12.27-53.55,48.93-68.98,82.4-16.54,35.89-33.3,72.51-38.13,111.73-4.83,39.22,4.09,82.2,32.59,109.58,22.53,21.65,54.74,31.52,75.94,54.48,34.2,37.05,29.28,94.01,28.8,144.43-.31,32.5,2.4,66.02,17,95.05,14.61,29.03,43.39,52.79,75.89,53.29,27.6.42,52.46-15.16,77.51-26.78s56.08-19.13,79.05-3.81c34.43,22.95,24.97,75.46,39.96,114.03,19.41,49.94,80.67,71.68,134,66.54,53.33-5.14,102.32-30.25,153.01-47.61,194.04-66.47,424.38-10.43,566.18,137.77"/>
      <path class="cls-11" d="M521.9,135.15c-22.69-19.76-57.55-24.15-84.42-10.62-26.87,13.53-44.12,44.14-41.76,74.14,2.2,27.93,19.6,53.68,18.05,81.65-1.96,35.32-35.32,62.92-70.24,68.52-34.93,5.6-70.34-6.23-102.15-21.69-38.86-18.88-81.53-44.16-122.26-29.78-34.76,12.27-53.55,48.93-68.98,82.4-16.54,35.89-33.3,72.51-38.13,111.73-4.83,39.22,4.09,82.2,32.59,109.58,22.53,21.65,54.74,31.52,75.94,54.48,34.2,37.05,29.28,94.01,28.8,144.43-.31,32.5,2.4,66.02,17,95.05,14.61,29.03,43.39,52.79,75.89,53.29,27.6.42,52.46-15.16,77.51-26.78,25.04-11.62,56.08-19.13,79.05-3.81,34.43,22.95,24.97,75.46,39.96,114.03,19.41,49.94,80.67,71.68,134,66.54s102.32-30.25,153.01-47.61c194.04-66.47,424.38-10.43,566.18,137.77"/>
      <path class="cls-13" d="M526.5,128.76c-22.69-19.76-57.55-24.15-84.42-10.62-26.87,13.53-44.12,44.14-41.76,74.14,2.2,27.93,19.6,53.68,18.05,81.65-1.96,35.32-35.32,62.92-70.24,68.52-34.93,5.6-70.34-6.23-102.15-21.69-38.86-18.88-81.53-44.16-122.26-29.78-34.76,12.27-53.55,48.93-68.98,82.4-16.54,35.89-33.3,72.51-38.13,111.73s4.09,82.2,32.59,109.58c22.53,21.65,54.74,31.52,75.94,54.48,34.2,37.05,29.28,94.01,28.8,144.43-.31,32.5,2.4,66.02,17,95.05,14.61,29.03,43.39,52.79,75.89,53.29,27.6.42,52.46-15.16,77.51-26.78,25.04-11.62,56.08-19.13,79.05-3.81,34.43,22.95,24.97,75.46,39.96,114.03,19.41,49.94,80.67,71.68,134,66.54,53.33-5.14,102.32-30.25,153.01-47.61,194.04-66.47,424.38-10.43,566.18,137.77"/>
      <path class="cls-17" d="M531.09,122.36c-22.69-19.76-57.55-24.15-84.42-10.62-26.87,13.53-44.12,44.14-41.76,74.14,2.2,27.93,19.6,53.68,18.05,81.65-1.96,35.32-35.32,62.92-70.24,68.52s-70.34-6.23-102.15-21.69c-38.86-18.88-81.53-44.16-122.26-29.78-34.76,12.27-53.55,48.93-68.98,82.4-16.54,35.89-33.3,72.51-38.13,111.73s4.09,82.2,32.59,109.58c22.53,21.65,54.74,31.52,75.94,54.48,34.2,37.05,29.28,94.01,28.8,144.43-.31,32.5,2.4,66.02,17,95.05,14.61,29.03,43.39,52.79,75.89,53.29,27.6.42,52.46-15.16,77.51-26.78,25.04-11.62,56.08-19.13,79.05-3.81,34.43,22.95,24.97,75.46,39.96,114.03,19.41,49.94,80.67,71.68,134,66.54s102.32-30.25,153.01-47.61c194.04-66.47,424.38-10.43,566.18,137.77"/>
      <path class="cls-12" d="M535.69,115.96c-22.69-19.76-57.55-24.15-84.42-10.62-26.87,13.53-44.12,44.14-41.76,74.14,2.2,27.93,19.6,53.68,18.05,81.65-1.96,35.32-35.32,62.92-70.24,68.52-34.93,5.6-70.34-6.23-102.15-21.69-38.86-18.88-81.53-44.16-122.26-29.78-34.76,12.27-53.55,48.93-68.98,82.4-16.54,35.89-33.3,72.51-38.13,111.73s4.09,82.2,32.59,109.58c22.53,21.65,54.74,31.52,75.94,54.48,34.2,37.05,29.28,94.01,28.8,144.43-.31,32.5,2.4,66.02,17,95.05s43.39,52.79,75.89,53.29c27.6.42,52.46-15.16,77.51-26.78,25.04-11.62,56.08-19.13,79.05-3.81,34.43,22.95,24.97,75.46,39.96,114.03,19.41,49.94,80.67,71.68,134,66.54s102.32-30.25,153.01-47.61c194.04-66.47,424.38-10.43,566.18,137.77"/>
      <path class="cls-4" d="M540.28,109.56c-22.69-19.76-57.55-24.15-84.42-10.62-26.87,13.53-44.12,44.14-41.76,74.14,2.2,27.93,19.6,53.68,18.05,81.65-1.96,35.32-35.32,62.92-70.24,68.52-34.93,5.6-70.34-6.23-102.15-21.69-38.86-18.88-81.53-44.16-122.26-29.78-34.76,12.27-53.55,48.93-68.98,82.4-16.54,35.89-33.3,72.51-38.13,111.73s4.09,82.2,32.59,109.58c22.53,21.65,54.74,31.52,75.94,54.48,34.2,37.05,29.28,94.01,28.8,144.43-.31,32.5,2.4,66.02,17,95.05,14.61,29.03,43.39,52.79,75.89,53.29,27.6.42,52.46-15.16,77.51-26.78,25.04-11.62,56.08-19.13,79.05-3.81,34.43,22.95,24.97,75.46,39.96,114.03,19.41,49.94,80.67,71.68,134,66.54,53.33-5.14,102.32-30.25,153.01-47.61,194.04-66.47,424.38-10.43,566.18,137.77"/>
      <path class="cls-3" d="M544.88,103.17c-22.69-19.76-57.55-24.15-84.42-10.62-26.87,13.53-44.12,44.14-41.76,74.14,2.2,27.93,19.6,53.68,18.05,81.65-1.96,35.32-35.32,62.92-70.24,68.52-34.93,5.6-70.34-6.23-102.15-21.69-38.86-18.88-81.53-44.16-122.26-29.78-34.76,12.27-53.55,48.93-68.98,82.4-16.54,35.89-33.3,72.51-38.13,111.73s4.09,82.2,32.59,109.58c22.53,21.65,54.74,31.52,75.94,54.48,34.2,37.05,29.28,94.01,28.8,144.43-.31,32.5,2.4,66.02,17,95.05,14.61,29.03,43.39,52.79,75.89,53.29,27.6.42,52.46-15.16,77.51-26.78,25.04-11.62,56.08-19.13,79.05-3.81,34.43,22.95,24.97,75.46,39.96,114.03,19.41,49.94,80.67,71.68,134,66.54,53.33-5.14,102.32-30.25,153.01-47.61,194.04-66.47,424.38-10.43,566.18,137.77"/>
      <path class="cls-19" d="M549.47,96.77c-22.69-19.76-57.55-24.15-84.42-10.62s-44.12,44.14-41.76,74.14c2.2,27.93,19.6,53.68,18.05,81.65-1.96,35.32-35.32,62.92-70.24,68.52-34.93,5.6-70.34-6.23-102.15-21.69-38.86-18.88-81.53-44.16-122.26-29.78-34.76,12.27-53.55,48.93-68.98,82.4-16.54,35.89-33.3,72.51-38.13,111.73s4.09,82.2,32.59,109.58c22.53,21.65,54.74,31.52,75.94,54.48,34.2,37.05,29.28,94.01,28.8,144.43-.31,32.5,2.4,66.02,17,95.05s43.39,52.79,75.89,53.29c27.6.42,52.46-15.16,77.51-26.78,25.04-11.62,56.08-19.13,79.05-3.81,34.43,22.95,24.97,75.46,39.96,114.03,19.41,49.94,80.67,71.68,134,66.54,53.33-5.14,102.32-30.25,153.01-47.61,194.04-66.47,424.38-10.43,566.18,137.77"/>
      <path class="cls-15" d="M554.06,90.37c-22.69-19.76-57.55-24.15-84.42-10.62s-44.12,44.14-41.76,74.14c2.2,27.93,19.6,53.68,18.05,81.65-1.96,35.32-35.32,62.92-70.24,68.52s-70.34-6.23-102.15-21.69c-38.86-18.88-81.53-44.16-122.26-29.78-34.76,12.27-53.55,48.93-68.98,82.4-16.54,35.89-33.3,72.51-38.13,111.73s4.09,82.2,32.59,109.58c22.53,21.65,54.74,31.52,75.94,54.48,34.2,37.05,29.28,94.01,28.8,144.43-.31,32.5,2.4,66.02,17,95.05s43.39,52.79,75.89,53.29c27.6.42,52.46-15.16,77.51-26.78,25.04-11.62,56.08-19.13,79.05-3.81,34.43,22.95,24.97,75.46,39.96,114.03,19.41,49.94,80.67,71.68,134,66.54s102.32-30.25,153.01-47.61c194.04-66.47,424.38-10.43,566.18,137.77"/>
      <path class="cls-6" d="M558.66,83.97c-22.69-19.76-57.55-24.15-84.42-10.62-26.87,13.53-44.12,44.14-41.76,74.14,2.2,27.93,19.6,53.68,18.05,81.65-1.96,35.32-35.32,62.92-70.24,68.52-34.93,5.6-70.34-6.23-102.15-21.69-38.86-18.88-81.53-44.16-122.26-29.78-34.76,12.27-53.55,48.93-68.98,82.4-16.54,35.89-33.3,72.51-38.13,111.73s4.09,82.2,32.59,109.58c22.53,21.65,54.74,31.52,75.94,54.48,34.2,37.05,29.28,94.01,28.8,144.43-.31,32.5,2.4,66.02,17,95.05,14.61,29.03,43.39,52.79,75.89,53.29,27.6.42,52.46-15.16,77.51-26.78,25.04-11.62,56.08-19.13,79.05-3.81,34.43,22.95,24.97,75.46,39.96,114.03,19.41,49.94,80.67,71.68,134,66.54s102.32-30.25,153.01-47.61c194.04-66.47,424.38-10.43,566.18,137.77"/>
      <path class="cls-16" d="M563.25,77.58c-22.69-19.76-57.55-24.15-84.42-10.62-26.87,13.53-44.12,44.14-41.76,74.14,2.2,27.93,19.6,53.68,18.05,81.65-1.96,35.32-35.32,62.92-70.24,68.52-34.93,5.6-70.34-6.23-102.15-21.69-38.86-18.88-81.53-44.16-122.26-29.78-34.76,12.27-53.55,48.93-68.98,82.4-16.54,35.89-33.3,72.51-38.13,111.73-4.83,39.22,4.09,82.2,32.59,109.58,22.53,21.65,54.74,31.52,75.94,54.48,34.2,37.05,29.28,94.01,28.8,144.43-.31,32.5,2.4,66.02,17,95.05,14.61,29.03,43.39,52.79,75.89,53.29,27.6.42,52.46-15.16,77.51-26.78,25.04-11.62,56.08-19.13,79.05-3.81,34.43,22.95,24.97,75.46,39.96,114.03,19.41,49.94,80.67,71.68,134,66.54,53.33-5.14,102.32-30.25,153.01-47.61,194.04-66.47,424.38-10.43,566.18,137.77"/>
      <path class="cls-1" d="M567.85,71.18c-22.69-19.76-57.55-24.15-84.42-10.62s-44.12,44.14-41.76,74.14c2.2,27.93,19.6,53.68,18.05,81.65-1.96,35.32-35.32,62.92-70.24,68.52-34.93,5.6-70.34-6.23-102.15-21.69-38.86-18.88-81.53-44.16-122.26-29.78-34.76,12.27-53.55,48.93-68.98,82.4-16.54,35.89-33.3,72.51-38.13,111.73s4.09,82.2,32.59,109.58c22.53,21.65,54.74,31.52,75.94,54.48,34.2,37.05,29.28,94.01,28.8,144.43-.31,32.5,2.4,66.02,17,95.05,14.61,29.03,43.39,52.79,75.89,53.29,27.6.42,52.46-15.16,77.51-26.78,25.04-11.62,56.08-19.13,79.05-3.81,34.43,22.95,24.97,75.46,39.96,114.03,19.41,49.94,80.67,71.68,134,66.54s102.32-30.25,153.01-47.61c194.04-66.47,424.38-10.43,566.18,137.77"/>
      <path class="cls-7" d="M572.44,64.78c-22.69-19.76-57.55-24.15-84.42-10.62-26.87,13.53-44.12,44.14-41.76,74.14,2.2,27.93,19.6,53.68,18.05,81.65-1.96,35.32-35.32,62.92-70.24,68.52-34.93,5.6-70.34-6.23-102.15-21.69-38.86-18.88-81.53-44.16-122.26-29.78-34.76,12.27-53.55,48.93-68.98,82.4-16.54,35.89-33.3,72.51-38.13,111.73-4.83,39.22,4.09,82.2,32.59,109.58,22.53,21.65,54.74,31.52,75.94,54.48,34.2,37.05,29.28,94.01,28.8,144.43-.31,32.5,2.4,66.02,17,95.05,14.61,29.03,43.39,52.79,75.89,53.29,27.6.42,52.46-15.16,77.51-26.78,25.04-11.62,56.08-19.13,79.05-3.81,34.43,22.95,24.97,75.46,39.96,114.03,19.41,49.94,80.67,71.68,134,66.54s102.32-30.25,153.01-47.61c194.04-66.47,424.38-10.43,566.18,137.77"/>
      <path class="cls-14" d="M577.04,58.38c-22.69-19.76-57.55-24.15-84.42-10.62-26.87,13.53-44.12,44.14-41.76,74.14,2.2,27.93,19.6,53.68,18.05,81.65-1.96,35.32-35.32,62.92-70.24,68.52-34.93,5.6-70.34-6.23-102.15-21.69-38.86-18.88-81.53-44.16-122.26-29.78-34.76,12.27-53.55,48.93-68.98,82.4-16.54,35.89-33.3,72.51-38.13,111.73-4.83,39.22,4.09,82.2,32.59,109.58,22.53,21.65,54.74,31.52,75.94,54.48,34.2,37.05,29.28,94.01,28.8,144.43-.31,32.5,2.4,66.02,17,95.05,14.61,29.03,43.39,52.79,75.89,53.29,27.6.42,52.46-15.16,77.51-26.78,25.04-11.62,56.08-19.13,79.05-3.81,34.43,22.95,24.97,75.46,39.96,114.03,19.41,49.94,80.67,71.68,134,66.54,53.33-5.14,102.32-30.25,153.01-47.61,194.04-66.47,424.38-10.43,566.18,137.77"/>
      <path class="cls-2" d="M581.63,51.99c-22.69-19.76-57.55-24.15-84.42-10.62-26.87,13.53-44.12,44.14-41.76,74.14,2.2,27.93,19.6,53.68,18.05,81.65-1.96,35.32-35.32,62.92-70.24,68.52-34.93,5.6-70.34-6.23-102.15-21.69-38.86-18.88-81.53-44.16-122.26-29.78-34.76,12.27-53.55,48.93-68.98,82.4-16.54,35.89-33.3,72.51-38.13,111.73-4.83,39.22,4.09,82.2,32.59,109.58,22.53,21.65,54.74,31.52,75.94,54.48,34.2,37.05,29.28,94.01,28.8,144.43-.31,32.5,2.4,66.02,17,95.05,14.61,29.03,43.39,52.79,75.89,53.29,27.6.42,52.46-15.16,77.51-26.78,25.04-11.62,56.08-19.13,79.05-3.81,34.43,22.95,24.97,75.46,39.96,114.03,19.41,49.94,80.67,71.68,134,66.54s102.32-30.25,153.01-47.61c194.04-66.47,424.38-10.43,566.18,137.77"/>
      <path class="cls-21" d="M586.23,45.59c-22.69-19.76-57.55-24.15-84.42-10.62-26.87,13.53-44.12,44.14-41.76,74.14,2.2,27.93,19.6,53.68,18.05,81.65-1.96,35.32-35.32,62.92-70.24,68.52-34.93,5.6-70.34-6.23-102.15-21.69-38.86-18.88-81.53-44.16-122.26-29.78-34.76,12.27-53.55,48.93-68.98,82.4-16.54,35.89-33.3,72.51-38.13,111.73s4.09,82.2,32.59,109.58c22.53,21.65,54.74,31.52,75.94,54.48,34.2,37.05,29.28,94.01,28.8,144.43-.31,32.5,2.4,66.02,17,95.05,14.61,29.03,43.39,52.79,75.89,53.29,27.6.42,52.46-15.16,77.51-26.78,25.04-11.62,56.08-19.13,79.05-3.81,34.43,22.95,24.97,75.46,39.96,114.03,19.41,49.94,80.67,71.68,134,66.54,53.33-5.14,102.32-30.25,153.01-47.61,194.04-66.47,424.38-10.43,566.18,137.77"/>
      <path class="cls-9" d="M590.82,39.19c-22.69-19.76-57.55-24.15-84.42-10.62-26.87,13.53-44.12,44.14-41.76,74.14,2.2,27.93,19.6,53.68,18.05,81.65-1.96,35.32-35.32,62.92-70.24,68.52-34.93,5.6-70.34-6.23-102.15-21.69-38.86-18.88-81.53-44.16-122.26-29.78-34.76,12.27-53.55,48.93-68.98,82.4-16.54,35.89-33.3,72.51-38.13,111.73-4.83,39.22,4.09,82.2,32.59,109.58,22.53,21.65,54.74,31.52,75.94,54.48,34.2,37.05,29.28,94.01,28.8,144.43-.31,32.5,2.4,66.02,17,95.05,14.61,29.03,43.39,52.79,75.89,53.29,27.6.42,52.46-15.16,77.51-26.78,25.04-11.62,56.08-19.13,79.05-3.81,34.43,22.95,24.97,75.46,39.96,114.03,19.41,49.94,80.67,71.68,134,66.54,53.33-5.14,102.32-30.25,153.01-47.61,194.04-66.47,424.38-10.43,566.18,137.77"/>
      <path class="cls-5" d="M595.41,32.79c-22.69-19.76-57.55-24.15-84.42-10.62-26.87,13.53-44.12,44.14-41.76,74.14,2.2,27.93,19.6,53.68,18.05,81.65-1.96,35.32-35.32,62.92-70.24,68.52-34.93,5.6-70.34-6.23-102.15-21.69-38.86-18.88-81.53-44.16-122.26-29.78-34.76,12.27-53.55,48.93-68.98,82.4-16.54,35.89-33.3,72.51-38.13,111.73-4.83,39.22,4.09,82.2,32.59,109.58,22.53,21.65,54.74,31.52,75.94,54.48,34.2,37.05,29.28,94.01,28.8,144.43-.31,32.5,2.4,66.02,17,95.05s43.39,52.79,75.89,53.29c27.6.42,52.46-15.16,77.51-26.78,25.04-11.62,56.08-19.13,79.05-3.81,34.43,22.95,24.97,75.46,39.96,114.03,19.41,49.94,80.67,71.68,134,66.54,53.33-5.14,102.32-30.25,153.01-47.61,194.04-66.47,424.38-10.43,566.18,137.77"/>
      <path class="cls-20" d="M600.01,26.4c-22.69-19.76-57.55-24.15-84.42-10.62-26.87,13.53-44.12,44.14-41.76,74.14,2.2,27.93,19.6,53.68,18.05,81.65-1.96,35.32-35.32,62.92-70.24,68.52-34.93,5.6-70.34-6.23-102.15-21.69-38.86-18.88-81.53-44.16-122.26-29.78-34.76,12.27-53.55,48.93-68.98,82.4-16.54,35.89-33.3,72.51-38.13,111.73-4.83,39.22,4.09,82.2,32.59,109.58,22.53,21.65,54.74,31.52,75.94,54.48,34.2,37.05,29.28,94.01,28.8,144.43-.31,32.5,2.4,66.02,17,95.05,14.61,29.03,43.39,52.79,75.89,53.29,27.6.42,52.46-15.16,77.51-26.78,25.04-11.62,56.08-19.13,79.05-3.81,34.43,22.95,24.97,75.46,39.96,114.03,19.41,49.94,80.67,71.68,134,66.54,53.33-5.14,102.32-30.25,153.01-47.61,194.04-66.47,424.38-10.43,566.18,137.77"/>
      <path class="cls-10" d="M604.6,20c-22.69-19.76-57.55-24.15-84.42-10.62-26.87,13.53-44.12,44.14-41.76,74.14,2.2,27.93,19.6,53.68,18.05,81.65-1.96,35.32-35.32,62.92-70.24,68.52-34.93,5.6-70.34-6.23-102.15-21.69-38.86-18.88-81.53-44.16-122.26-29.78-34.76,12.27-53.55,48.93-68.98,82.4-16.54,35.89-33.3,72.51-38.13,111.73s4.09,82.2,32.59,109.58c22.53,21.65,54.74,31.52,75.94,54.48,34.2,37.05,29.28,94.01,28.8,144.43-.31,32.5,2.4,66.02,17,95.05,14.61,29.03,43.39,52.79,75.89,53.29,27.6.42,52.46-15.16,77.51-26.78,25.04-11.62,56.08-19.13,79.05-3.81,34.43,22.95,24.97,75.46,39.96,114.03,19.41,49.94,80.67,71.68,134,66.54s102.32-30.25,153.01-47.61c194.04-66.47,424.38-10.43,566.18,137.77"/>
    </g>
  </g>
</svg>
